<svg width="47" height="48" viewBox="0 0 47 48" fill="none" xmlns="http://www.w3.org/2000/svg">
<g filter="url(#filter0_d_562_84)">
<path d="M32.584 26.3405C32.518 26.328 32.4502 26.3286 32.3844 26.3425C32.3187 26.3563 32.2563 26.3831 32.2009 26.4212C32.1455 26.4593 32.0981 26.508 32.0615 26.5646C32.0248 26.6212 31.9996 26.6844 31.9874 26.7508C31.2147 30.8364 28.5332 32.9744 26.2876 32.9744H24.3058C24.316 32.2205 24.3109 31.2051 24.2599 29.9897C24.1527 27.3949 22.2389 25.0256 20.6363 23.7897C19.2328 22.7077 17.6762 21.3333 17.2015 20.9077H11.0108L11.1945 31.3692C11.1973 31.5044 11.1468 31.6352 11.0541 31.7331C10.9614 31.8311 10.8339 31.8883 10.6995 31.8923C10.4688 31.8795 10.2382 31.9194 10.0252 32.0091C9.81211 32.0988 9.6221 32.236 9.46947 32.4103C9.16441 32.8807 9.02597 33.4408 9.07649 34H26.2876C28.9558 34 32.115 31.5744 32.9913 26.939C33.0162 26.8054 32.9873 26.6673 32.9109 26.555C32.8345 26.4428 32.717 26.3656 32.584 26.3405ZM18.9164 32.1867H14.8589C14.3792 32.1867 14.2057 33.0123 14.2006 33.1046C14.1945 33.2372 14.1383 33.3625 14.0435 33.4549C13.9486 33.5474 13.8223 33.6 13.6902 33.6021H13.6749C13.5431 33.6008 13.4171 33.5473 13.3244 33.4532C13.2317 33.3591 13.1797 33.2319 13.1798 33.0995C13.1798 32.6738 13.583 31.161 14.8589 31.161H17.1199C16.772 30.8187 16.4945 30.411 16.3033 29.961C15.5122 28.0995 16.3798 26.0123 16.4207 25.92C16.4741 25.7949 16.5749 25.6962 16.7007 25.6457C16.8266 25.5952 16.9673 25.597 17.0918 25.6508C17.2163 25.7045 17.3145 25.8057 17.3648 25.9322C17.415 26.0587 17.4132 26.2 17.3597 26.3251C17.3495 26.3405 16.6197 28.1097 17.2424 29.561C17.4216 29.9472 17.6789 30.2916 17.9978 30.5724C18.3168 30.8531 18.6904 31.0641 19.095 31.1918C19.2082 31.2331 19.3032 31.3132 19.3633 31.4181C19.4233 31.523 19.4446 31.6458 19.4232 31.7649C19.4018 31.884 19.3392 31.9916 19.2465 32.0688C19.1537 32.146 19.0368 32.1877 18.9164 32.1867ZM10.6423 14.6092H9.05659C7.86845 14.6092 6.25212 13.0867 6 11.4636L10.728 10.6518C10.8104 10.6377 10.888 10.6034 10.9542 10.5521C11.0203 10.5008 11.0728 10.4339 11.1072 10.3574C11.2604 10.0159 11.8029 9.08718 12.4663 8.84615C12.5591 8.81165 12.6417 8.75402 12.7062 8.67867C12.7708 8.60332 12.8152 8.51272 12.8353 8.41538L13.0344 6.82256C12.9359 6.54183 12.821 6.26716 12.6904 6L13.7759 6.53333C13.8409 6.56532 13.8983 6.6108 13.9444 6.66676C13.9905 6.72273 14.0242 6.78789 14.0434 6.85795L14.5267 8.62205C14.5593 8.74342 14.6354 8.84841 14.7403 8.91684C14.8452 8.98528 14.9717 9.01234 15.0952 8.99282C15.4001 8.97929 15.6982 9.08498 15.9271 9.28769C16.4416 9.73077 16.7167 10.6421 16.7218 11.9236C16.7345 14.9251 16.8315 18.5472 16.8698 19.8805H11.0164L11.1522 15.1369C11.1541 15.0683 11.1424 15 11.1176 14.9361C11.0929 14.8722 11.0556 14.8139 11.008 14.7647C10.9604 14.7154 10.9035 14.6763 10.8406 14.6496C10.7777 14.6229 10.7101 14.6092 10.6418 14.6092H10.6423ZM10.4586 20.3933C10.5274 20.3932 10.5948 20.4137 10.6521 20.4521C10.7095 20.4905 10.7541 20.5451 10.7806 20.609C10.807 20.6729 10.8139 20.7433 10.8005 20.8112C10.7871 20.8791 10.7539 20.9414 10.7052 20.9904C10.6565 21.0393 10.5944 21.0726 10.5269 21.0861C10.4593 21.0996 10.3893 21.0926 10.3256 21.0661C10.262 21.0396 10.2077 20.9947 10.1695 20.9371C10.1312 20.8795 10.1109 20.8118 10.111 20.7426C10.1111 20.65 10.1478 20.5612 10.213 20.4958C10.2781 20.4303 10.3664 20.3935 10.4586 20.3933Z" fill="#2F435A"/>
</g>
<defs>
<filter id="filter0_d_562_84" x="0" y="0" width="47" height="48" filterUnits="userSpaceOnUse" color-interpolation-filters="sRGB">
<feFlood flood-opacity="0" result="BackgroundImageFix"/>
<feColorMatrix in="SourceAlpha" type="matrix" values="0 0 0 0 0 0 0 0 0 0 0 0 0 0 0 0 0 0 127 0" result="hardAlpha"/>
<feOffset dx="4" dy="4"/>
<feGaussianBlur stdDeviation="5"/>
<feComposite in2="hardAlpha" operator="out"/>
<feColorMatrix type="matrix" values="0 0 0 0 0 0 0 0 0 0 0 0 0 0 0 0 0 0 0.2 0"/>
<feBlend mode="normal" in2="BackgroundImageFix" result="effect1_dropShadow_562_84"/>
<feBlend mode="normal" in="SourceGraphic" in2="effect1_dropShadow_562_84" result="shape"/>
</filter>
</defs>
</svg>
