<svg width="27" height="28" viewBox="0 0 27 28" fill="none" xmlns="http://www.w3.org/2000/svg">
<path d="M26.584 20.3405C26.518 20.328 26.4502 20.3286 26.3844 20.3425C26.3187 20.3563 26.2563 20.3831 26.2009 20.4212C26.1455 20.4593 26.0981 20.508 26.0615 20.5646C26.0248 20.6212 25.9996 20.6844 25.9874 20.7508C25.2147 24.8364 22.5332 26.9744 20.2876 26.9744H18.3058C18.316 26.2205 18.3109 25.2051 18.2599 23.9897C18.1527 21.3949 16.2389 19.0256 14.6363 17.7897C13.2328 16.7077 11.6762 15.3333 11.2015 14.9077H5.01078L5.19451 25.3692C5.19726 25.5044 5.1468 25.6352 5.05409 25.7331C4.96138 25.8311 4.83393 25.8883 4.69946 25.8923C4.46879 25.8795 4.23824 25.9194 4.02517 26.0091C3.81211 26.0988 3.6221 26.236 3.46947 26.4103C3.16441 26.8807 3.02597 27.4408 3.07649 28H20.2876C22.9558 28 26.115 25.5744 26.9913 20.939C27.0162 20.8054 26.9873 20.6673 26.9109 20.555C26.8345 20.4428 26.717 20.3656 26.584 20.3405ZM12.9164 26.1867H8.85895C8.3792 26.1867 8.20568 27.0123 8.20057 27.1046C8.19448 27.2372 8.1383 27.3625 8.04347 27.4549C7.94864 27.5474 7.8223 27.6 7.69021 27.6021H7.6749C7.54309 27.6008 7.4171 27.5473 7.32438 27.4532C7.23165 27.3591 7.1797 27.2319 7.17984 27.0995C7.17984 26.6738 7.58303 25.161 8.85895 25.161H11.1199C10.772 24.8187 10.4945 24.411 10.3033 23.961C9.51222 22.0995 10.3798 20.0123 10.4207 19.92C10.4741 19.7949 10.5749 19.6962 10.7007 19.6457C10.8266 19.5952 10.9673 19.597 11.0918 19.6508C11.2163 19.7045 11.3145 19.8057 11.3648 19.9322C11.415 20.0587 11.4132 20.2 11.3597 20.3251C11.3495 20.3405 10.6197 22.1097 11.2424 23.561C11.4216 23.9472 11.6789 24.2916 11.9978 24.5724C12.3168 24.8531 12.6904 25.0641 13.095 25.1918C13.2082 25.2331 13.3032 25.3132 13.3633 25.4181C13.4233 25.523 13.4446 25.6458 13.4232 25.7649C13.4018 25.884 13.3392 25.9916 13.2465 26.0688C13.1537 26.146 13.0368 26.1877 12.9164 26.1867ZM4.6423 8.60923H3.05659C1.86845 8.60923 0.252121 7.08667 0 5.46359L4.72804 4.6518C4.8104 4.63767 4.88804 4.60344 4.95416 4.55211C5.02027 4.50079 5.07284 4.43394 5.10724 4.35744C5.26035 4.0159 5.80287 3.08718 6.46635 2.84615C6.55914 2.81165 6.64168 2.75402 6.70623 2.67867C6.77077 2.60332 6.8152 2.51272 6.83534 2.41538L7.03439 0.822564C6.9359 0.541826 6.82104 0.267162 6.6904 0L7.77595 0.533333C7.84087 0.56532 7.89828 0.610801 7.94438 0.666764C7.99049 0.722727 8.02423 0.787894 8.04338 0.857949L8.5267 2.62205C8.55929 2.74342 8.63536 2.84841 8.74031 2.91684C8.84525 2.98528 8.97166 3.01234 9.09525 2.99282C9.40007 2.97929 9.69824 3.08498 9.92715 3.28769C10.4416 3.73077 10.7167 4.64205 10.7218 5.92359C10.7345 8.92513 10.8315 12.5472 10.8698 13.8805H5.0164L5.15215 9.13692C5.15413 9.06834 5.1424 9.00005 5.11764 8.9361C5.09288 8.87216 5.0556 8.81386 5.00801 8.76465C4.96041 8.71545 4.90348 8.67634 4.84058 8.64964C4.77767 8.62294 4.71007 8.6092 4.64179 8.60923H4.6423ZM4.45856 14.3933C4.52745 14.3932 4.59482 14.4137 4.65213 14.4521C4.70945 14.4905 4.75414 14.5451 4.78055 14.609C4.80696 14.6729 4.8139 14.7433 4.80048 14.8112C4.78707 14.8791 4.75391 14.9414 4.7052 14.9904C4.65649 15.0393 4.59442 15.0726 4.52685 15.0861C4.45929 15.0996 4.38926 15.0926 4.32564 15.0661C4.26202 15.0396 4.20766 14.9947 4.16945 14.9371C4.13124 14.8795 4.1109 14.8118 4.111 14.7426C4.11114 14.65 4.1478 14.5612 4.21295 14.4958C4.2781 14.4303 4.36643 14.3935 4.45856 14.3933Z" fill="#2F435A"/>
</svg>
