<svg width="24" height="22" viewBox="0 0 24 22" fill="none" xmlns="http://www.w3.org/2000/svg">
<path d="M20.0756 1.65829C19.5635 2.73378 19.1538 2.93863 17.1564 2.93863C15.3127 2.93863 14.7494 3.1947 14.0324 4.21897C13.3666 5.24324 12.7521 5.49931 10.345 5.60173C7.47707 5.75537 7.42586 5.80659 7.27222 7.39421C7.06736 9.44275 8.60377 11.1328 10.7547 11.1328C12.6496 11.1328 12.7008 11.5425 10.9084 12.9765C9.4744 14.1032 9.4744 14.1032 10.4475 15.1787C11.5742 16.4078 13.3154 16.5614 15.2615 15.5372C16.6955 14.8202 16.7467 14.8714 19.922 18.4051C21.9705 20.6073 23.3533 21.7852 23.6605 21.4779C23.9166 21.2219 24.0702 17.1248 23.9678 12.0034C23.8142 3.29713 23.763 2.98985 22.5851 1.70951C21.0486 0.0706749 20.7926 0.0706749 20.0756 1.65829Z" fill="#FDCE6D"/>
<path d="M1.22895 6.06265C0.768025 6.77964 3.3287 9.34031 4.04569 8.87939C4.91632 8.31604 4.71146 7.80391 3.12385 6.626C2.09958 5.85779 1.48501 5.70415 1.22895 6.06265Z" fill="#FDCE6D"/>
<path d="M0 12.4644C0 13.079 0.460921 13.1814 2.15097 13.079C5.17256 12.8741 5.37742 11.645 2.35582 11.645C0.563348 11.645 0 11.8498 0 12.4644Z" fill="#FDCE6D"/>
<path d="M2.20209 16.6126C0.921752 17.4833 0.614471 18.8148 1.68995 18.8148C2.56058 18.8148 4.71155 16.5614 4.25063 16.1005C3.78971 15.5884 3.48243 15.6908 2.20209 16.6126Z" fill="#FDCE6D"/>
</svg>
