<svg width="24" height="24" viewBox="0 0 24 24" fill="none" xmlns="http://www.w3.org/2000/svg">
<path fill-rule="evenodd" clip-rule="evenodd" d="M19.7158 9.03904C20.4597 8.72225 21.024 8.18561 21.5533 7.64706C22.1566 7.03314 22.1645 6.26371 22.1645 5.861C22.1645 5.22068 21.5464 4.71573 20.5415 4.69221C20.0093 4.67973 19.6842 4.80885 19.2407 5.12324C18.9231 5.34788 18.1787 6.08323 18.5107 6.68467C18.5279 6.71587 18.5561 6.75379 18.596 6.79843C18.6354 6.84287 18.6573 6.89939 18.6581 6.95804C18.6588 7.0167 18.6382 7.07372 18.6 7.11906C18.5616 7.16442 18.5067 7.19345 18.4467 7.19999C18.3867 7.20653 18.3265 7.19007 18.2788 7.1541L18.2265 7.11474C17.5705 6.62707 17.2133 6.44563 17.2133 5.72324C17.2133 4.36389 19.0567 3.05783 20.837 3.09959C22.6153 3.14135 24 4.39077 24 5.84756C24 6.64435 23.4781 7.77474 22.6247 8.64353C22.0791 9.1992 21.4203 9.63799 20.6905 9.93183C20.7369 10.0062 20.7847 10.0864 20.8336 10.1733C21.317 11.0305 21.2539 11.1347 21.3155 12.2056C21.3767 13.2769 21.0511 15.1921 21.1759 16.1358C21.3012 17.079 21.9272 17.1841 22.0648 17.8637C22.1521 18.2943 22.3687 20.1634 22.7145 23.4701C22.7216 23.537 22.7142 23.6046 22.6927 23.6686C22.6713 23.7326 22.6363 23.7914 22.59 23.8414C22.5436 23.8913 22.4871 23.9313 22.4239 23.9586C22.3607 23.9859 22.2923 24 22.2232 24H21.2085C21.0779 24 20.9527 23.9495 20.8604 23.8597C20.768 23.7699 20.7162 23.648 20.7162 23.521V23.2824C20.7162 23.1312 20.7892 22.9887 20.9135 22.8984L21.0704 22.7837C21.1442 22.7299 21.201 22.657 21.2344 22.5734C21.2678 22.4897 21.2764 22.3986 21.2593 22.3104C20.9895 20.9127 20.7522 20.0712 20.548 19.7861C20.397 19.5749 19.7153 19.2308 18.8362 18.5636C18.6789 18.4436 18.3957 18.1892 17.9878 17.7994C17.955 17.7678 17.9137 17.7459 17.8687 17.736C17.8236 17.7261 17.7767 17.7287 17.7331 17.7435C17.6895 17.7583 17.6511 17.7847 17.6221 17.8197C17.5932 17.8547 17.575 17.8969 17.5695 17.9415C17.4955 18.5189 17.4028 19.0057 17.2927 19.4016C17.1596 19.8788 16.7501 21.1234 16.0649 23.1346C16.0324 23.2304 15.9695 23.3139 15.8854 23.373C15.8013 23.4321 15.7001 23.4639 15.5963 23.4638H14.3049C14.188 23.4637 14.0759 23.4185 13.9932 23.338C13.9105 23.2576 13.864 23.1485 13.8639 23.0347V23.0059C13.8638 22.8934 13.9042 22.7845 13.9783 22.6981C14.0523 22.6116 14.1551 22.5533 14.2689 22.5331L14.8228 22.4343C15.2204 21.0212 15.3936 19.9863 15.3433 19.3292C15.3078 18.8645 14.9851 18.3241 14.6601 17.3833C14.5925 17.1874 14.4973 16.7881 14.3749 16.1833C14.3684 16.1512 14.3552 16.1207 14.3362 16.0937C14.3171 16.0667 14.2925 16.0438 14.264 16.0264C14.2355 16.009 14.2036 15.9975 14.1704 15.9925C14.1371 15.9875 14.1031 15.9892 14.0706 15.9975L10.7838 16.826C10.7476 16.8351 10.714 16.852 10.6856 16.8756C10.6571 16.8991 10.6346 16.9287 10.6195 16.9619C10.6045 16.9952 10.5975 17.0314 10.5989 17.0677C10.6004 17.104 10.6103 17.1395 10.6279 17.1716L10.7054 17.3137C10.8533 17.5834 10.9303 17.8849 10.9303 18.1906V22.6834C10.9303 22.8327 10.8588 22.9738 10.7369 23.065L10.0478 23.5786C9.9615 23.643 9.85571 23.678 9.7469 23.6779H9.25213C9.12126 23.6778 8.99579 23.6271 8.90329 23.537C8.8108 23.4469 8.75884 23.3248 8.75884 23.1974V22.9527C8.75884 22.7784 8.85503 22.6176 9.01141 22.5327L9.36658 22.3397C9.44955 22.2947 9.51742 22.2274 9.56205 22.1459C9.60668 22.0643 9.62616 21.9719 9.61815 21.8799C9.56192 21.2314 9.49286 20.738 9.40998 20.4C9.32514 20.0516 9.11894 19.4295 8.79189 18.5348C8.77844 18.498 8.75595 18.4649 8.72637 18.4384C8.6968 18.412 8.66104 18.393 8.62219 18.3831C8.58335 18.3731 8.5426 18.3726 8.50349 18.3814C8.46437 18.3903 8.42808 18.4084 8.39776 18.434L8.30156 18.5146C8.06035 18.7177 7.76585 18.8506 7.45113 18.9001L4.36709 19.38C4.32319 19.3869 4.28201 19.4051 4.2479 19.4329C4.21379 19.4606 4.18802 19.4968 4.17331 19.5376C4.15861 19.5784 4.15551 19.6224 4.16435 19.6648C4.17319 19.7072 4.19364 19.7464 4.22354 19.7784L4.55158 20.1298C4.63445 20.2181 4.67983 20.3333 4.67983 20.4528V20.7668C4.6798 20.831 4.66652 20.8946 4.64078 20.9537C4.61505 21.0129 4.57738 21.0665 4.53001 21.1112C4.48264 21.156 4.42653 21.191 4.36499 21.2143C4.30345 21.2376 4.23774 21.2486 4.17175 21.2467L3.76725 21.2352C3.69369 21.2331 3.62154 21.2151 3.55607 21.1823C3.49061 21.1496 3.43349 21.1031 3.3889 21.0461L2.87884 20.3962C2.81323 20.3125 2.77771 20.2101 2.77771 20.1048V19.1506C2.77771 18.9841 2.8665 18.829 3.01202 18.7417C5.11886 17.4745 6.26132 16.7742 6.4394 16.6393C6.62389 16.5001 6.70084 16.2673 6.67026 15.9414C6.32693 14.9492 5.77691 14.5979 5.52977 14.0103C5.28313 13.4233 4.82437 11.596 4.59746 10.8942C4.14116 9.48304 3.74061 8.73664 3.63258 8.51345C3.38988 8.01233 2.96171 7.94129 2.50936 7.7685C2.05702 7.59522 1.19721 7.62162 0.637823 7.14402C0.0789261 6.66595 0.130228 6.16675 0 5.6234V4.95861C0 4.69317 0.221487 4.47813 0.494276 4.47813H1.83405C2.01509 4.47813 2.18132 4.38213 2.26814 4.22709C2.42106 3.95398 2.66524 3.69286 3.00117 3.44422C3.4483 3.11545 3.95774 2.87583 4.50028 2.73911C4.37695 1.24441 4.37695 0.400095 4.50028 0.206177C4.6236 0.0122591 4.96644 0.315616 5.52977 1.11625C5.61018 0.173537 5.76704 -0.172059 6.00086 0.0794584C6.2189 0.314656 6.59528 1.16905 7.12951 2.64263C7.19956 2.83463 7.30068 3.01607 7.42894 3.17782C7.65338 3.46006 7.85563 3.79798 8.03667 4.19061C8.38049 4.93749 8.78203 6.88819 9.49286 7.84769C10.2032 8.8072 10.618 8.88592 11.6441 9.06352C12.3258 9.1816 14.6763 8.80432 16.6016 8.73137C18.0845 8.67473 19.2772 8.9176 19.4923 8.97136C19.5698 8.99104 19.6438 9.01312 19.7158 9.03904Z" fill="#FDCE6D"/>
</svg>
