<svg width="18" height="22" viewBox="0 0 18 22" fill="none" xmlns="http://www.w3.org/2000/svg">
<path d="M1.71249 21.1374V14.2787L6.77499 19.3412C7.70289 18.4133 8.53695 17.4146 9.27716 16.345C10.0174 15.2754 10.3875 14.0874 10.3875 12.7809C10.3875 11.8276 10.2022 10.9138 9.83151 10.0396C9.46086 9.16529 8.94256 8.39518 8.27661 7.72924L5.42174 4.86239H8.79619L12.85 0.808594L14.9956 2.95424C15.6743 3.62888 16.1989 4.39798 16.5696 5.26157C16.9402 6.12517 17.1255 7.03794 17.1255 7.99989C17.1255 8.96184 16.9402 9.87362 16.5696 10.7352C16.1989 11.5968 15.6743 12.3669 14.9956 13.0455L12.9875 15.0537V21.1374H1.71249ZM6.77499 16.5162L1.47934 11.2205C1.28404 11.0253 1.1324 10.7937 1.02444 10.5257C0.916471 10.2578 0.862488 9.98251 0.862488 9.69989C0.862488 9.41728 0.916471 9.14617 1.02444 8.88657C1.1324 8.62697 1.28404 8.39953 1.47934 8.20424L3.68694 5.97162L6.87064 9.15424C7.35325 9.63684 7.72671 10.1903 7.99101 10.8146C8.25533 11.4388 8.38749 12.0943 8.38749 12.7809C8.38749 13.4874 8.24555 14.1598 7.96166 14.798C7.6778 15.4362 7.28224 16.009 6.77499 16.5162Z" fill="#FDCE6D"/>
</svg>
