<svg width="24" height="26" viewBox="0 0 24 26" fill="none" xmlns="http://www.w3.org/2000/svg">
<path d="M4.98898 1.23729C4.43132 1.49077 3.51879 2.14982 3.01183 2.75817C2.45417 3.31583 1.74443 3.82279 1.38956 3.82279C0.477027 3.82279 -0.232718 5.29298 0.0714581 6.56038C0.426331 8.03056 1.69373 9.39936 2.65696 9.39936C3.67088 9.39936 5.74942 15.7364 6.10429 20.0962L6.40847 23.0873H8.28422C10.0586 23.0873 10.2107 22.9859 10.5148 21.3129C10.7683 19.9441 10.6162 19.3358 9.8051 18.5246C9.24745 17.967 8.79118 16.8517 8.79118 16.0405C8.79118 14.0127 12.8469 11.2244 15.1282 11.63C16.8012 11.9849 18.4234 13.6071 18.4234 14.9759C18.4234 15.635 18.9304 15.9392 20.3499 16.0912C21.3638 16.2433 22.6312 16.4968 23.1382 16.6996C23.8986 17.0545 24 16.801 24 15.0266C24 12.3397 22.8847 9.65284 21.4652 8.8924C20.3499 8.28405 13.4045 8.43613 9.75441 9.14588C7.42239 9.60214 6.15499 8.43613 6.35777 6.15481C6.56055 4.17766 7.52378 4.07627 7.57448 6.00272C7.67587 8.18265 9.14605 8.99379 10.5655 7.5743C11.326 6.76316 11.326 6.2562 10.3121 3.56931C9.55162 1.54147 6.96612 0.426155 4.98898 1.23729Z" fill="#FDCE6D"/>
<path d="M11.4276 14.4184C9.95742 15.6858 9.80533 16.0406 10.2616 16.9532C10.6165 17.5615 11.1741 18.0178 11.5797 18.0178C11.9853 18.0178 12.4415 18.7782 12.6443 19.8935C13.3034 23.7464 13.7089 24.8617 14.5201 25.0138C15.0777 25.1152 15.5847 24.7097 15.8889 23.8985C16.2944 22.8339 16.7 22.5804 18.1702 22.5804C19.5897 22.5804 20.0966 22.8339 20.5529 23.8478C20.9078 24.6083 21.4654 25.0645 21.9217 25.0138C22.9356 24.811 23.3412 19.3359 22.4286 18.2206C21.7189 17.3587 19.8431 17.308 17.6125 18.1192C15.6354 18.8289 14.368 18.0685 14.368 16.1927C14.368 14.7225 15.1791 14.5704 15.534 15.9899C15.8382 17.2573 17.4097 17.3587 17.4097 16.0913C17.4097 15.5844 17.0549 14.6718 16.5986 14.0635C15.534 12.5426 13.4554 12.644 11.4276 14.4184Z" fill="#FDCE6D"/>
</svg>
