<svg width="22" height="23" viewBox="0 0 22 23" fill="none" xmlns="http://www.w3.org/2000/svg">
<path d="M10.7134 0C9.33857 0 8.02002 0.533372 7.04785 1.48278C6.07568 2.43219 5.52952 3.71986 5.52952 5.06253C5.52952 6.40519 6.07568 7.69287 7.04785 8.64228C8.02002 9.59168 9.33857 10.1251 10.7134 10.1251C12.0883 10.1251 13.4068 9.59168 14.379 8.64228C15.3512 7.69287 15.8974 6.40519 15.8974 5.06253C15.8974 3.71986 15.3512 2.43219 14.379 1.48278C13.4068 0.533372 12.0883 0 10.7134 0ZM5.18392 12.8251C3.80906 12.8251 2.49051 13.3584 1.51834 14.3079C0.546161 15.2573 0 16.5449 0 17.8876V19.4914C0 20.5093 0.754779 21.376 1.78327 21.5394C7.69709 22.483 13.7298 22.483 19.6436 21.5394C20.1414 21.4602 20.5941 21.2107 20.9208 20.8356C21.2475 20.4604 21.4269 19.9839 21.4269 19.4914V17.8876C21.4269 16.5449 20.8807 15.2573 19.9085 14.3079C18.9364 13.3584 17.6178 12.8251 16.243 12.8251H15.7729C15.5172 12.8251 15.2628 12.8656 15.0209 12.9412L13.8238 13.3232C11.8027 13.9675 9.62418 13.9675 7.60308 13.3232L6.40594 12.9412C6.16355 12.8641 5.91022 12.825 5.65531 12.8251H5.18392Z" fill="#2F435A"/>
</svg>
