<svg width="25" height="26" viewBox="0 0 25 26" fill="none" xmlns="http://www.w3.org/2000/svg">
<rect width="24" height="24" transform="matrix(-0.999996 0.00277457 0.00277457 0.999996 24 0.966751)" fill="#2F435A"/>
<path d="M2.8742 23.3352L5.07239 23.3291C5.4315 23.3281 5.81317 21.4332 5.81301 21.3751C5.81285 21.317 5.66202 19.688 5.66202 19.688L6.01577 18.1908C6.01577 18.1908 5.58415 15.1526 5.53203 15.1077C5.47991 15.0629 3.7873 12.512 3.7873 12.512C3.7873 12.512 3.7069 16.6559 3.51079 17.879C3.31468 19.102 2.86974 21.7245 2.86974 21.7245L3.73184 21.7221L3.64254 22.2211C3.64254 22.2211 2.87179 22.4633 2.8742 23.3352Z" fill="#FDCE6D"/>
<path d="M4.96082 23.1878C4.95269 23.2342 4.94843 23.2813 4.94809 23.3284L8.58745 23.3184L8.58349 21.8915L9.48295 21.6977L9.26009 20.4402L9.94074 20.4496C9.94074 20.4496 8.95723 17.3829 9.65881 16.1491C9.65881 16.1491 10.1925 17.2651 11.7528 17.362L11.7507 16.612C11.7507 16.612 13.3506 16.8045 13.5573 16.9577C13.764 17.1108 15.2066 17.3543 15.2066 17.3543L15.2053 16.9175L15.2072 16.9175L15.8728 16.895L15.8707 16.1431C15.8707 16.1431 16.8185 19.8549 18.2597 20.2878L18.8442 20.0986L19.4077 20.4514C19.4077 20.4514 19.3497 21.8504 20.4552 22.2842C20.4552 22.2842 19.1631 22.1809 19.1662 23.289L22.1493 23.2807C22.1493 23.2807 21.9328 20.9657 22.1412 20.3614C22.3495 19.757 22.4495 19.3161 22.3664 19.1082C22.2834 18.9003 19.5398 15.3604 19.4747 14.2131C19.4747 14.2131 20.0715 17.0915 22.6983 17.0842L21.7114 16.1475L22.3581 16.0839C22.3581 16.0839 20.8952 15.2948 20.8309 14.3987C20.7665 13.5026 19.796 9.7272 16.6873 9.73583C13.5786 9.74445 12.4382 9.63136 11.4962 9.34523C10.5541 9.05909 8.67087 8.10619 8.67087 8.10619L4.07708 7.42518C4.07708 7.42518 1.96428 13.6242 5.88918 16.5121C6.00191 16.5961 6.12026 16.6783 6.24423 16.7567L6.24611 16.7567C6.24631 16.7636 6.24696 16.7705 6.24804 16.7773C6.28078 17.0904 6.64939 20.8675 5.64297 21.7084L6.14462 22.0783C6.14462 22.0783 5.09204 22.4993 4.96082 23.1878Z" fill="#FDCE6D"/>
<path d="M3.19256 4.70943C3.03713 5.14988 2.84807 5.57773 2.62705 5.9892C2.29384 6.59012 1.66775 7.32442 1.7952 7.9837C1.92266 8.64297 2.17377 8.59353 2.14714 9.0646C2.12051 9.53568 1.73845 9.35505 1.78424 9.9133C1.83004 10.4715 2.62734 11.0971 2.62734 11.0971L2.61088 10.2318C2.61088 10.2318 3.50478 11.2762 3.01286 12.1846C3.01286 12.1846 4.40353 12.4459 4.45465 10.799C4.45229 9.94771 3.86593 9.86552 3.85047 9.2935C3.83501 8.72148 3.93293 8.53446 3.93293 8.53446C4.51511 5.82814 4.45704 4.22724 3.19256 4.70943ZM7.71992 4.69687C7.8778 5.13645 8.06923 5.56324 8.29252 5.97348C8.62906 6.57254 9.25903 7.30336 9.13524 7.96333C9.01144 8.6233 8.76025 8.57525 8.78949 9.04617C8.81873 9.51709 9.19979 9.33435 9.15709 9.89284C9.11439 10.4513 8.32057 11.0813 8.32057 11.0813L8.33167 10.2165C8.33167 10.2165 7.44377 11.2658 7.94053 12.1715C7.94053 12.1715 6.55152 12.4405 6.49108 10.7939C6.48872 9.94262 7.0748 9.85718 7.0869 9.28508C7.099 8.71298 7.00023 8.52651 7.00023 8.52651C6.3755 6.57505 6.39586 5.12748 7.71992 4.69687Z" fill="#FDCE6D"/>
<path d="M3.15951 4.38796C3.16929 4.14346 3.23263 3.90409 3.34507 3.68676C3.53655 3.29516 3.83457 2.96549 4.20492 2.73559C4.57527 2.50569 5.00294 2.38487 5.43884 2.38701C5.4467 2.38783 5.45433 2.39009 5.46136 2.39369L5.46134 2.38694C5.89727 2.3823 6.32567 2.50068 6.69736 2.7285C7.06905 2.95631 7.36896 3.28432 7.56267 3.67487C7.67631 3.89157 7.74098 4.13059 7.75212 4.37503C7.75455 5.2514 6.98793 6.02266 6.98793 6.02266C6.98793 6.02266 7.32876 6.81578 7.33032 7.37809C7.29438 7.93165 7.09427 8.46195 6.75555 8.90125C6.53311 9.15012 6.01157 8.97832 6.01157 8.97832C5.94573 9.10244 5.47993 9.15342 5.47993 9.15342L5.47984 9.12267C5.46565 9.14333 5.45743 9.15348 5.45743 9.15348C5.45743 9.15348 4.99135 9.10509 4.92482 8.98133C4.92482 8.98133 4.40424 9.1564 4.18024 8.9084C3.83915 8.47096 3.63617 7.94178 3.59721 7.38845C3.59565 6.82595 3.93245 6.03132 3.93245 6.03132C3.93245 6.03132 3.16194 5.26433 3.15951 4.38796Z" fill="#FDCE6D"/>
<path d="M6.332 4.21547C6.1925 4.21586 6.11209 4.83202 6.30115 4.92169C6.49021 5.01135 6.71939 4.69065 6.69369 4.48541C6.68007 4.40235 6.63477 4.32781 6.56731 4.27746C6.49986 4.22712 6.41551 4.2049 6.332 4.21547Z" fill="#FDCE6D"/>
<path d="M6.66321 4.03774C6.67069 4.03779 6.67808 4.03612 6.6848 4.03285C6.69152 4.02958 6.6974 4.0248 6.70197 4.01888C6.70849 4.00987 6.71158 3.99882 6.7107 3.98773L6.7107 3.98642C6.72268 3.91458 6.51195 3.65041 6.3785 3.53172C6.3692 3.52344 6.35699 3.51919 6.34456 3.51991C6.33214 3.52063 6.3205 3.52626 6.31223 3.53556C6.30395 3.54485 6.2997 3.55706 6.30042 3.56949C6.30114 3.58192 6.30677 3.59355 6.31607 3.60183C6.4343 3.70962 6.53521 3.83501 6.61522 3.97356C6.61495 3.97631 6.61496 3.97907 6.61525 3.98181C6.61425 3.99178 6.61613 4.00183 6.62068 4.01076C6.62522 4.01968 6.63224 4.02712 6.64089 4.03218C6.64776 4.03583 6.65543 4.03774 6.66321 4.03774ZM6.06745 5.0234C6.07706 5.02333 6.08642 5.02031 6.09426 5.01474C6.10209 5.00917 6.10803 5.00132 6.11126 4.99227C6.11449 4.98321 6.11486 4.97338 6.11231 4.96411C6.10976 4.95484 6.10443 4.94658 6.09703 4.94044C6.00855 4.86751 5.93906 4.77422 5.89452 4.66856C5.89226 4.66271 5.88884 4.65737 5.88448 4.65286C5.88011 4.64835 5.87489 4.64477 5.86911 4.64232C5.86334 4.63987 5.85713 4.6386 5.85085 4.63859C5.84457 4.63859 5.83836 4.63984 5.83258 4.64228C5.8268 4.64472 5.82156 4.64829 5.81719 4.65279C5.81282 4.65729 5.80939 4.66263 5.80712 4.66847C5.80484 4.67432 5.80376 4.68057 5.80395 4.68684C5.80413 4.69311 5.80557 4.69929 5.80819 4.70499C5.85849 4.82467 5.93724 4.93026 6.0376 5.01261C6.0459 5.01972 6.05652 5.02356 6.06745 5.0234ZM7.11873 6.22836C7.12522 6.22828 7.13161 6.22679 7.13747 6.224C7.14306 6.22144 7.14809 6.21779 7.15227 6.21327C7.15644 6.20875 7.15968 6.20345 7.16179 6.19767C7.1639 6.1919 7.16485 6.18576 7.16457 6.17961C7.16429 6.17346 7.1628 6.16743 7.16017 6.16187C7.13376 6.10457 7.10361 6.04953 7.07477 5.99336C6.97647 5.85382 6.92499 5.68668 6.92775 5.51601C6.92991 5.50381 6.92717 5.49124 6.92012 5.48104C6.91307 5.47085 6.90229 5.46384 6.8901 5.46155C6.88404 5.4603 6.87779 5.46029 6.87172 5.46152C6.86566 5.46275 6.85991 5.4652 6.85481 5.46872C6.84972 5.47224 6.8454 5.47676 6.8421 5.482C6.83881 5.48724 6.83661 5.49309 6.83564 5.49921C6.82692 5.69079 6.8819 5.87987 6.99201 6.0369C7.02066 6.09101 7.0495 6.14587 7.07553 6.20148C7.07934 6.20967 7.08546 6.21658 7.09313 6.22135C7.1008 6.22613 7.1097 6.22856 7.11873 6.22836Z" fill="#FDCE6D"/>
<path d="M4.93127 5.87593C5.08259 5.67694 5.4865 5.82151 5.4865 5.82151C5.4865 5.82151 5.83522 5.67485 5.98764 5.873C6.14007 6.07114 6.33963 6.63177 6.168 6.67875C5.99638 6.72572 5.92346 6.73005 5.90328 6.55179C5.89008 6.44239 5.85626 6.33649 5.8036 6.2397C5.8036 6.2397 5.74861 6.69341 5.84842 6.78557C5.94824 6.87773 5.95083 6.93023 5.95083 6.93023C5.64592 7.59483 5.31962 7.57567 4.97377 6.93294C4.97377 6.93294 4.97681 6.88043 5.07555 6.78772C5.1743 6.69501 5.11716 6.2416 5.11716 6.2416C5.06515 6.33872 5.03198 6.4448 5.0194 6.55425C5.00002 6.73261 4.92707 6.7285 4.75538 6.68267C4.58369 6.63683 4.77995 6.0751 4.93127 5.87593Z" fill="#FDCE6D"/>
<path d="M6.02491 9.07297C6.03541 9.07294 6.0456 9.06938 6.05384 9.06287C6.06208 9.05636 6.0679 9.04727 6.07036 9.03706C6.07282 9.02685 6.07177 9.01611 6.0674 9.00656C6.06302 8.99701 6.05556 8.98921 6.04622 8.98441C5.92136 8.92006 5.85772 8.62249 5.82446 8.46264L5.81705 8.42816C5.72892 8.01853 5.47634 8.01436 5.46547 8.01439C5.45304 8.01442 5.44113 8.01939 5.43236 8.02821C5.42359 8.03702 5.41869 8.04896 5.41872 8.06139C5.41876 8.07383 5.42373 8.08573 5.43254 8.0945C5.44136 8.10327 5.4533 8.10817 5.46573 8.10814C5.47473 8.10811 5.65494 8.11793 5.72617 8.44792L5.73339 8.48202C5.77576 8.68159 5.83941 8.9831 6.0037 9.06759C6.01024 9.07105 6.01751 9.0729 6.02491 9.07297Z" fill="#FDCE6D"/>
<path d="M4.57803 4.22034C4.71753 4.21995 4.80137 4.83566 4.61281 4.92637C4.42425 5.01708 4.1933 4.69766 4.21785 4.49228C4.23106 4.40916 4.27595 4.3344 4.34312 4.28369C4.41028 4.23298 4.49448 4.21028 4.57803 4.22034Z" fill="#FDCE6D"/>
<path d="M4.24579 4.04445C4.25369 4.04452 4.26148 4.04263 4.26846 4.03895C4.27714 4.03382 4.28415 4.02628 4.28862 4.01725C4.29309 4.00821 4.29483 3.99807 4.29364 3.98806C4.29391 3.98538 4.2939 3.98268 4.29361 3.98C4.37304 3.84118 4.47322 3.71533 4.5907 3.6068C4.59528 3.60268 4.59901 3.59769 4.60166 3.59213C4.60432 3.58656 4.60585 3.58053 4.60617 3.57438C4.60649 3.56822 4.6056 3.56206 4.60354 3.55625C4.60148 3.55044 4.5983 3.54509 4.59418 3.54051C4.59005 3.53593 4.58507 3.53221 4.5795 3.52955C4.57394 3.5269 4.5679 3.52537 4.56175 3.52505C4.55559 3.52472 4.54944 3.52562 4.54362 3.52767C4.53781 3.52973 4.53247 3.53291 4.52788 3.53704C4.3839 3.66012 4.2709 3.81536 4.19802 3.99021C4.19711 3.99651 4.1975 4.00294 4.19916 4.00909C4.20082 4.01525 4.20372 4.021 4.20768 4.02599C4.21221 4.03177 4.21799 4.03643 4.2246 4.03963C4.2312 4.04283 4.23845 4.04448 4.24579 4.04445ZM4.84608 5.02679C4.85701 5.02687 4.8676 5.02298 4.87586 5.01583C4.97571 4.93287 5.05386 4.82686 5.10357 4.70695C5.10615 4.70123 5.10756 4.69505 5.10771 4.68877C5.10786 4.6825 5.10675 4.67626 5.10444 4.67042C5.10213 4.66459 5.09868 4.65927 5.09428 4.6548C5.08988 4.65032 5.08462 4.64678 5.07883 4.64437C5.07303 4.64196 5.06681 4.64074 5.06054 4.64078C5.05426 4.64083 5.04806 4.64213 5.0423 4.64461C5.03653 4.64709 5.03133 4.65071 5.02699 4.65524C5.02265 4.65977 5.01926 4.66513 5.01703 4.671C4.97308 4.7769 4.90411 4.87057 4.81604 4.94399C4.80867 4.95017 4.80338 4.95847 4.80089 4.96775C4.7984 4.97704 4.79882 4.98686 4.8021 4.9959C4.80538 5.00494 4.81135 5.01275 4.81922 5.01827C4.82709 5.0238 4.83647 5.02677 4.84608 5.02679ZM3.83931 6.21458C3.84756 6.21458 3.85565 6.2124 3.86278 6.20826C3.86992 6.20413 3.87583 6.19818 3.87993 6.19103C4.02144 5.99177 4.09195 5.75077 4.08016 5.50666C4.07916 5.50056 4.07693 5.49471 4.07361 5.48949C4.07028 5.48427 4.06593 5.47978 4.06082 5.47629C4.05571 5.4728 4.04995 5.47038 4.04387 5.46918C4.0378 5.46798 4.03155 5.46803 4.02549 5.46931C4.01332 5.47167 4.00258 5.47873 3.99558 5.48897C3.98859 5.49921 3.98592 5.51179 3.98815 5.52398C3.99465 5.74599 3.92813 5.964 3.7988 6.14457C3.79263 6.15536 3.79098 6.16816 3.79421 6.18017C3.79744 6.19217 3.80529 6.20241 3.81604 6.20865C3.82313 6.21266 3.83117 6.21471 3.83931 6.21458Z" fill="#FDCE6D"/>
<path d="M4.91219 9.07606C4.91972 9.07606 4.92713 9.07417 4.93374 9.07056C5.09756 8.98517 5.15973 8.68331 5.20098 8.4835L5.20801 8.44936C5.27759 8.11766 5.45888 8.10835 5.46657 8.10814C5.479 8.1081 5.49091 8.10313 5.49968 8.09432C5.50844 8.0855 5.51335 8.07357 5.51331 8.06113C5.51328 8.0487 5.50831 8.03679 5.49949 8.02803C5.49068 8.01926 5.47874 8.01435 5.46631 8.01439C5.45543 8.01442 5.20289 8.02 5.11702 8.43011L5.10981 8.46463C5.07687 8.62466 5.01545 8.92258 4.89094 8.98761C4.88163 8.99247 4.87422 9.00031 4.86989 9.00989C4.86557 9.01946 4.86459 9.0302 4.8671 9.0404C4.86962 9.0506 4.87548 9.05966 4.88376 9.06612C4.89204 9.07259 4.90225 9.07609 4.91275 9.07605L4.91219 9.07606Z" fill="#FDCE6D"/>
<path d="M5.0527 12.95C5.05859 13.0456 5.16942 15.1453 5.88947 16.5121C6.0022 16.5961 6.12055 16.6783 6.24452 16.7567C6.24292 16.7451 6.23837 16.7342 6.23131 16.7249C5.37274 15.4391 5.24212 12.9645 5.24018 12.9401C5.2399 12.9278 5.23711 12.9157 5.23197 12.9045C5.22683 12.8933 5.21946 12.8833 5.2103 12.875C5.20114 12.8668 5.1904 12.8605 5.17873 12.8566C5.16705 12.8527 5.1547 12.8512 5.14243 12.8522C5.13012 12.8528 5.11803 12.8557 5.10685 12.8609C5.09568 12.8661 5.08564 12.8734 5.0773 12.8825C5.06897 12.8916 5.06251 12.9022 5.05829 12.9138C5.05407 12.9254 5.05217 12.9377 5.0527 12.95ZM9.6897 16.1623C9.7075 16.1623 9.72493 16.1572 9.73995 16.1476C9.75497 16.1381 9.76694 16.1244 9.77449 16.1083L10.3139 14.9548C10.3205 14.9435 10.3247 14.931 10.3262 14.9181C10.3277 14.9051 10.3265 14.892 10.3227 14.8795C10.3188 14.8671 10.3124 14.8556 10.3039 14.8457C10.2953 14.8359 10.2848 14.8279 10.273 14.8224C10.2612 14.8168 10.2483 14.8138 10.2353 14.8135C10.2223 14.8132 10.2093 14.8156 10.1973 14.8206C10.1852 14.8256 10.1743 14.833 10.1653 14.8425C10.1563 14.8519 10.1494 14.8631 10.1449 14.8754L9.60439 16.0289C9.59389 16.0514 9.59277 16.0772 9.60127 16.1005C9.60978 16.1239 9.62721 16.1429 9.64974 16.1534C9.66221 16.1594 9.67588 16.1624 9.6897 16.1623ZM15.8487 16.2369C15.8532 16.2372 15.8576 16.2372 15.8621 16.2369C15.8867 16.2333 15.9088 16.2202 15.9237 16.2002C15.9386 16.1803 15.945 16.1553 15.9414 16.1307C15.6704 14.2636 14.8774 13.8404 14.8438 13.8232C14.8218 13.8131 14.7968 13.8118 14.7739 13.8197C14.751 13.8276 14.7321 13.8441 14.7211 13.8656C14.71 13.8871 14.7078 13.9121 14.7147 13.9353C14.7217 13.9584 14.7373 13.978 14.7584 13.9899C14.7708 13.9968 15.5017 14.4056 15.7559 16.1577C15.7594 16.1798 15.7706 16.1999 15.7877 16.2145C15.8047 16.229 15.8264 16.237 15.8487 16.2369ZM19.452 14.3077C19.4765 14.3076 19.4999 14.298 19.5174 14.2809C19.5349 14.2638 19.545 14.2405 19.5455 14.2161C19.5692 13.2123 18.9337 12.0469 18.9066 11.9977C18.8943 11.9765 18.8742 11.9609 18.8505 11.9544C18.8269 11.9478 18.8017 11.9507 18.7802 11.9626C18.7587 11.9744 18.7428 11.9942 18.7357 12.0176C18.7286 12.0411 18.731 12.0664 18.7424 12.0881C18.7486 12.0997 19.3805 13.2592 19.358 14.2117C19.3577 14.2241 19.3599 14.2363 19.3643 14.2478C19.3688 14.2593 19.3754 14.2698 19.3839 14.2787C19.3924 14.2876 19.4026 14.2947 19.4139 14.2997C19.4251 14.3047 19.4373 14.3074 19.4496 14.3077L19.452 14.3077ZM8.16274 21.5848C8.17403 21.5848 8.18495 21.5807 8.19345 21.5732C8.49224 21.3053 8.72048 20.968 8.85805 20.591C8.99562 20.214 9.03828 19.809 8.98227 19.4116C8.98146 19.4055 8.97942 19.3996 8.97627 19.3943C8.97312 19.3889 8.96893 19.3843 8.96394 19.3806C8.95896 19.377 8.95329 19.3744 8.94727 19.3729C8.94125 19.3715 8.93501 19.3713 8.92891 19.3724C8.92282 19.3733 8.91697 19.3754 8.9117 19.3786C8.90642 19.3818 8.90183 19.386 8.89819 19.391C8.89455 19.396 8.89192 19.4016 8.89046 19.4076C8.889 19.4136 8.88874 19.4198 8.88969 19.4259C8.94343 19.8077 8.9024 20.1969 8.77022 20.559C8.63805 20.9212 8.41878 21.2453 8.13176 21.5027C8.12709 21.5068 8.12327 21.5117 8.12051 21.5172C8.11775 21.5227 8.11612 21.5287 8.1157 21.5349C8.11528 21.541 8.11609 21.5472 8.11807 21.5531C8.12005 21.5589 8.12318 21.5643 8.12726 21.5689C8.13172 21.5739 8.13718 21.5779 8.1433 21.5807C8.14942 21.5834 8.15604 21.5848 8.16274 21.5848ZM7.54587 21.9937C7.55798 21.9937 7.56961 21.989 7.57827 21.9805C7.83936 21.7227 8.04634 21.4153 8.18706 21.0764C8.32779 20.7376 8.39944 20.374 8.3978 20.0071C8.39766 19.9947 8.39266 19.9828 8.38386 19.9741C8.37506 19.9654 8.36318 19.9605 8.35079 19.9605C8.34464 19.9606 8.33855 19.9618 8.33289 19.9643C8.32723 19.9667 8.3221 19.9702 8.3178 19.9746C8.31349 19.979 8.31009 19.9842 8.3078 19.9899C8.3055 19.9956 8.30436 20.0017 8.30443 20.0079C8.30598 20.3621 8.23682 20.7132 8.10098 21.0404C7.96516 21.3676 7.76539 21.6644 7.5134 21.9134C7.50675 21.9199 7.50219 21.9283 7.5003 21.9374C7.49842 21.9465 7.4993 21.956 7.50282 21.9646C7.50635 21.9732 7.51236 21.9806 7.52009 21.9858C7.52783 21.991 7.53693 21.9937 7.54624 21.9937L7.54587 21.9937ZM6.41697 22.0091C6.42555 22.009 6.43396 22.0066 6.44133 22.0022C6.64573 21.874 6.81164 21.6928 6.92146 21.478C7.03128 21.2631 7.08093 21.0225 7.06513 20.7818C7.06517 20.7754 7.06383 20.7692 7.06119 20.7634C7.05856 20.7577 7.05469 20.7526 7.04987 20.7485C7.04506 20.7444 7.0394 20.7414 7.0333 20.7397C7.0272 20.738 7.02081 20.7377 7.01457 20.7388C7.0022 20.7398 6.99074 20.7457 6.98272 20.7552C6.97469 20.7647 6.97076 20.7769 6.97178 20.7893C6.98651 21.0129 6.94042 21.2364 6.8384 21.4359C6.73639 21.6355 6.58225 21.8037 6.39236 21.9227C6.38359 21.928 6.37682 21.9361 6.37307 21.9456C6.36932 21.9551 6.3688 21.9656 6.3716 21.9755C6.37439 21.9854 6.38034 21.9941 6.38854 22.0002C6.39673 22.0064 6.40672 22.0097 6.41697 22.0096L6.41697 22.0091ZM6.09882 21.8198C6.10788 21.8199 6.11675 21.8173 6.1243 21.8122C6.38177 21.6441 6.58998 21.4105 6.72767 21.1356C6.94584 20.7001 6.97012 20.1925 6.99175 19.7449C6.99228 19.7324 6.98787 19.7203 6.97949 19.7111C6.97111 19.7019 6.95943 19.6963 6.94699 19.6957C6.93471 19.6956 6.92284 19.7001 6.91376 19.7084C6.90467 19.7166 6.89904 19.728 6.89799 19.7403C6.87708 20.1789 6.85315 20.6758 6.64374 21.0936C6.51358 21.3538 6.31664 21.5747 6.07308 21.7338C6.06459 21.7393 6.05812 21.7475 6.05463 21.757C6.05113 21.7665 6.05081 21.7768 6.05371 21.7865C6.05661 21.7962 6.06257 21.8047 6.0707 21.8108C6.07883 21.8168 6.0887 21.82 6.09882 21.82L6.09882 21.8198Z" fill="#FDCE6D"/>
<path d="M5.7987 21.7736C5.80514 21.7736 5.8115 21.7723 5.8174 21.7697C5.8233 21.7672 5.8286 21.7634 5.83298 21.7587C6.29009 21.2619 6.5463 20.613 6.55186 19.9379C6.55205 19.9317 6.55097 19.9255 6.54867 19.9197C6.54638 19.9139 6.54293 19.9086 6.53852 19.9042C6.53412 19.8998 6.52887 19.8963 6.52308 19.894C6.51729 19.8917 6.51109 19.8906 6.50486 19.8908C6.49249 19.8908 6.48064 19.8958 6.47188 19.9045C6.46313 19.9132 6.45818 19.9251 6.45811 19.9374C6.45298 20.5893 6.20572 21.2159 5.76436 21.6957C5.75804 21.7023 5.75382 21.7107 5.75223 21.7197C5.75064 21.7288 5.75174 21.7381 5.75541 21.7465C5.75907 21.7549 5.76513 21.762 5.77283 21.767C5.78053 21.772 5.78953 21.7746 5.79871 21.7745L5.7987 21.7736Z" fill="#FDCE6D"/>
<path d="M3.95665 21.4423C3.96827 21.4423 3.97948 21.438 3.98812 21.4302C4.66123 20.8117 5.06481 19.9539 5.11212 19.041C5.11241 19.0348 5.11148 19.0287 5.1094 19.0229C5.10731 19.0171 5.1041 19.0117 5.09995 19.0072C5.0958 19.0026 5.0908 18.9989 5.08522 18.9963C5.07964 18.9937 5.0736 18.9922 5.06745 18.9919C5.06129 18.9916 5.05514 18.9925 5.04934 18.9946C5.04354 18.9967 5.03821 18.9999 5.03365 19.004C5.02909 19.0082 5.02539 19.0132 5.02277 19.0188C5.02014 19.0244 5.01864 19.0304 5.01835 19.0365C4.97248 19.9246 4.57985 20.7593 3.92492 21.3608C3.91794 21.3672 3.91305 21.3756 3.9109 21.3848C3.90875 21.394 3.90944 21.4036 3.91287 21.4125C3.9163 21.4213 3.92232 21.4288 3.93013 21.4342C3.93795 21.4395 3.94719 21.4423 3.95665 21.4423ZM2.92993 21.7234L3.12305 21.7229C3.63393 21.3887 4.03346 20.9097 4.27049 20.3472C4.52102 19.7359 4.70166 19.0982 4.80896 18.4463C4.81116 18.4339 4.80847 18.4211 4.80145 18.4107C4.79443 18.4002 4.78363 18.3928 4.77131 18.3902C4.75916 18.3883 4.74673 18.3911 4.73663 18.3981C4.72652 18.4051 4.7195 18.4158 4.71704 18.4278C4.61098 19.0725 4.43285 19.7032 4.186 20.3081C3.93732 20.907 3.49508 21.4053 2.92993 21.7234ZM4.5776 21.4916C4.58291 21.4916 4.58818 21.4906 4.59316 21.4887C4.81407 21.4063 5.00908 21.2666 5.1582 21.0839C5.30731 20.9013 5.40516 20.6823 5.44171 20.4493C5.44262 20.4432 5.44232 20.437 5.44081 20.431C5.4393 20.4251 5.43662 20.4195 5.43293 20.4145C5.42923 20.4096 5.4246 20.4055 5.41929 20.4024C5.41398 20.3992 5.4081 20.3972 5.402 20.3964C5.3959 20.3953 5.38964 20.3955 5.38362 20.397C5.3776 20.3984 5.37194 20.4011 5.36698 20.4048C5.36202 20.4085 5.35788 20.4132 5.35479 20.4186C5.35171 20.424 5.34976 20.4299 5.34905 20.4361C5.3151 20.6522 5.2243 20.8554 5.08596 21.0249C4.94763 21.1943 4.76672 21.324 4.56179 21.4005C4.55134 21.4042 4.54253 21.4115 4.53693 21.421C4.53133 21.4306 4.52929 21.4418 4.53119 21.4527C4.53309 21.4637 4.53879 21.4735 4.54728 21.4807C4.55578 21.4878 4.56652 21.4916 4.5776 21.4916Z" fill="#FDCE6D"/>
<path d="M13.0869 16.3815C13.7286 16.7483 14.4455 16.9637 15.183 17.0113L15.1828 16.9175C14.4615 16.8698 13.7607 16.6582 13.1336 16.2988C13.1229 16.2927 13.1101 16.291 13.0982 16.2942C13.0862 16.2974 13.0761 16.3052 13.0699 16.3159C13.0636 16.3269 13.0618 16.3399 13.065 16.3522C13.0682 16.3644 13.0761 16.3749 13.0869 16.3815ZM11.8196 16.5931C11.8321 16.5933 11.844 16.5885 11.853 16.5798C11.8619 16.5711 11.867 16.5593 11.8671 16.5468C11.8673 16.5344 11.8625 16.5224 11.8538 16.5135C11.8452 16.5046 11.8333 16.4995 11.8209 16.4994L10.857 16.4664C10.8448 16.4667 10.8331 16.4714 10.8241 16.4798C10.8152 16.4882 10.8097 16.4995 10.8086 16.5117C10.8084 16.5179 10.8094 16.524 10.8115 16.5298C10.8137 16.5356 10.817 16.5408 10.8212 16.5453C10.8254 16.5498 10.8305 16.5535 10.8361 16.556C10.8417 16.5585 10.8477 16.56 10.8539 16.5602L11.8179 16.5931L11.8196 16.5931ZM18.2074 20.2438C18.2152 20.2438 18.2229 20.2418 18.2297 20.238C18.2406 20.232 18.2487 20.2219 18.2522 20.21C18.2556 20.1981 18.2542 20.1852 18.2483 20.1743C17.6291 19.0365 17.3133 17.7584 17.3314 16.4631C17.3315 16.4569 17.3304 16.4508 17.3281 16.4451C17.3258 16.4394 17.3224 16.4341 17.3181 16.4297C17.3138 16.4253 17.3087 16.4218 17.303 16.4194C17.2974 16.4169 17.2913 16.4156 17.2852 16.4156C17.279 16.4155 17.2729 16.4166 17.2672 16.4189C17.2615 16.4212 17.2562 16.4246 17.2518 16.4289C17.2474 16.4332 17.2439 16.4383 17.2415 16.4439C17.239 16.4496 17.2377 16.4557 17.2377 16.4618C17.2196 17.7733 17.5396 19.0674 18.1668 20.2194C18.1708 20.2267 18.1767 20.2328 18.1838 20.2371C18.1909 20.2414 18.1991 20.2437 18.2074 20.2438Z" fill="#FDCE6D"/>
<path d="M19.0185 20.2163C19.0282 20.2162 19.0376 20.2131 19.0455 20.2075C19.0533 20.2018 19.0593 20.1938 19.0624 20.1847C19.0656 20.1755 19.0658 20.1656 19.0631 20.1563C19.0604 20.147 19.0549 20.1388 19.0473 20.1328C18.5199 19.7149 18.0976 19.1795 17.8141 18.5692C17.8115 18.5636 17.8079 18.5586 17.8033 18.5544C17.7988 18.5502 17.7935 18.547 17.7877 18.5449C17.7819 18.5428 17.7758 18.5418 17.7696 18.542C17.7635 18.5423 17.7574 18.5438 17.7518 18.5463C17.7462 18.5489 17.7412 18.5526 17.737 18.5571C17.7328 18.5617 17.7296 18.567 17.7275 18.5728C17.7253 18.5785 17.7244 18.5847 17.7246 18.5909C17.7249 18.597 17.7263 18.6031 17.7289 18.6087C18.0186 19.2323 18.4504 19.7793 18.9896 20.206C18.9978 20.2126 19.008 20.2162 19.0185 20.2163ZM20.5579 20.9759C20.5691 20.9758 20.5799 20.9718 20.5883 20.9645C20.5968 20.9572 20.6024 20.9471 20.604 20.9361C20.6057 20.9251 20.6034 20.9138 20.5975 20.9043C20.5916 20.8948 20.5826 20.8877 20.5719 20.8843C20.1095 20.7331 19.6982 20.4565 19.3838 20.0852C19.0694 19.714 18.8643 19.2627 18.7912 18.7818C18.7903 18.7756 18.7883 18.7697 18.7851 18.7643C18.782 18.759 18.7778 18.7543 18.7728 18.7506C18.7679 18.7468 18.7622 18.7441 18.7562 18.7426C18.7502 18.741 18.7439 18.7406 18.7378 18.7415C18.7316 18.7424 18.7257 18.7444 18.7203 18.7476C18.715 18.7508 18.7103 18.7549 18.7066 18.7599C18.7028 18.7649 18.7001 18.7705 18.6985 18.7765C18.697 18.7826 18.6966 18.7888 18.6975 18.795C18.7733 19.2934 18.9859 19.7609 19.3118 20.1456C19.6376 20.5303 20.0638 20.8169 20.5429 20.9737C20.5478 20.9752 20.5528 20.976 20.5579 20.9759ZM20.4662 22.7199C20.4755 22.7198 20.4846 22.717 20.4923 22.7119C20.5001 22.7067 20.5061 22.6993 20.5096 22.6907C20.6804 22.2701 20.756 21.8168 20.7309 21.3635C20.7295 21.3515 20.7237 21.3403 20.7147 21.3323C20.7056 21.3242 20.6938 21.3198 20.6817 21.3198C20.6693 21.3205 20.6577 21.3262 20.6494 21.3355C20.6411 21.3448 20.6369 21.357 20.6376 21.3694C20.6621 21.8087 20.589 22.248 20.4235 22.6557C20.4206 22.6628 20.4195 22.6705 20.4203 22.6782C20.421 22.6859 20.4237 22.6932 20.428 22.6996C20.4323 22.706 20.4381 22.7112 20.4449 22.7148C20.4517 22.7184 20.4593 22.7203 20.467 22.7203L20.4662 22.7199ZM20.9593 22.6257C20.9694 22.6256 20.9792 22.6223 20.9873 22.6162C20.9954 22.6101 21.0013 22.6016 21.0042 22.5918C21.2367 21.7726 21.1644 20.8968 20.8006 20.1268C20.7949 20.1163 20.7853 20.1084 20.7739 20.1047C20.7625 20.1011 20.7502 20.1019 20.7393 20.107C20.7285 20.1122 20.7201 20.1213 20.7158 20.1325C20.7115 20.1436 20.7116 20.156 20.7162 20.1671C21.0702 20.9167 21.1405 21.7692 20.9141 22.5666C20.9107 22.5786 20.9122 22.5914 20.9182 22.6023C20.9242 22.6132 20.9342 22.6213 20.9461 22.6248C20.9504 22.6257 20.9549 22.626 20.9593 22.6257Z" fill="#FDCE6D"/>
<path d="M20.3305 20.5239C20.3413 20.5239 20.3518 20.5202 20.3602 20.5134C20.3687 20.5066 20.3745 20.4971 20.3766 20.4864C20.3788 20.4758 20.3773 20.4648 20.3722 20.4552C20.3672 20.4456 20.359 20.438 20.349 20.4338C19.8738 20.2107 19.5013 19.8152 19.3071 19.3275C19.1131 18.8374 18.9817 18.3249 18.9159 17.8019C18.9135 17.7898 18.9066 17.779 18.8965 17.7719C18.8865 17.7647 18.874 17.7617 18.8618 17.7634C18.8557 17.7645 18.8499 17.7667 18.8447 17.7699C18.8394 17.7732 18.8349 17.7775 18.8313 17.7825C18.8278 17.7875 18.8252 17.7932 18.8238 17.7992C18.8225 17.8052 18.8223 17.8115 18.8233 17.8176C18.8901 18.3484 19.0239 18.8687 19.2214 19.366C19.425 19.8754 19.815 20.2881 20.3121 20.5202C20.3179 20.5227 20.3241 20.524 20.3305 20.5239ZM18.4622 18.8884C18.471 18.8885 18.4798 18.8861 18.4873 18.8815C18.4949 18.8769 18.501 18.8702 18.5049 18.8622C18.5088 18.8542 18.5103 18.8453 18.5094 18.8365C18.5084 18.8277 18.505 18.8193 18.4995 18.8124C18.1968 18.4312 18.0181 17.9665 17.9875 17.4807C17.9863 17.4684 17.9805 17.457 17.9713 17.4488C17.962 17.4407 17.95 17.4363 17.9376 17.4368C17.9252 17.4376 17.9136 17.4433 17.9054 17.4526C17.8972 17.4619 17.893 17.4741 17.8937 17.4866C17.9255 17.991 18.1108 18.4736 18.4246 18.8698C18.429 18.8756 18.4347 18.8803 18.4412 18.8836C18.4477 18.8868 18.4549 18.8885 18.4622 18.8884Z" fill="#FDCE6D"/>
</svg>
