<svg width="24" height="24" viewBox="0 0 24 24" fill="none" xmlns="http://www.w3.org/2000/svg">
<mask id="mask0_562_38" style="mask-type:alpha" maskUnits="userSpaceOnUse" x="0" y="0" width="24" height="24">
<rect width="24" height="24" fill="#D9D9D9"/>
</mask>
<g mask="url(#mask0_562_38)">
<path d="M4.7123 22.1375V15.2788L9.7748 20.3413C10.7027 19.4134 11.5368 18.4147 12.277 17.3451C13.0172 16.2755 13.3873 15.0875 13.3873 13.781C13.3873 12.8277 13.202 11.9139 12.8313 11.0397C12.4607 10.1654 11.9424 9.39528 11.2764 8.72935L8.42155 5.8625H11.796L15.8498 1.8087L17.9955 3.95435C18.6741 4.62898 19.1987 5.39809 19.5694 6.26167C19.94 7.12527 20.1254 8.03805 20.1254 9C20.1254 9.96195 19.94 10.8737 19.5694 11.7353C19.1987 12.5969 18.6741 13.367 17.9955 14.0456L15.9873 16.0538V22.1375H4.7123ZM9.7748 17.5163L4.47915 12.2206C4.28385 12.0254 4.13222 11.7938 4.02425 11.5258C3.91629 11.2579 3.8623 10.9826 3.8623 10.7C3.8623 10.4174 3.91629 10.1463 4.02425 9.88667C4.13222 9.62707 4.28385 9.39963 4.47915 9.20435L6.68675 6.97173L9.87045 10.1544C10.3531 10.637 10.7265 11.1904 10.9908 11.8147C11.2551 12.4389 11.3873 13.0944 11.3873 13.781C11.3873 14.4875 11.2454 15.1599 10.9615 15.7981C10.6776 16.4363 10.2821 17.0091 9.7748 17.5163Z" fill="#FDCE6D"/>
</g>
</svg>
