<svg width="25" height="26" viewBox="0 0 25 26" fill="none" xmlns="http://www.w3.org/2000/svg">
<path d="M2.8742 23.3352L5.07239 23.3291C5.4315 23.3281 5.81317 21.4333 5.81301 21.3752C5.81285 21.317 5.66202 19.6881 5.66202 19.6881L6.01577 18.1908C6.01577 18.1908 5.58415 15.1526 5.53203 15.1078C5.47991 15.0629 3.7873 12.512 3.7873 12.512C3.7873 12.512 3.7069 16.656 3.51079 17.879C3.31468 19.1021 2.86974 21.7246 2.86974 21.7246L3.73184 21.7222L3.64254 22.2212C3.64254 22.2212 2.87179 22.4633 2.8742 23.3352Z" fill="#FDCE6D"/>
<path d="M4.96082 23.1882C4.95269 23.2347 4.94843 23.2817 4.94809 23.3289L8.58745 23.3188L8.58349 21.8919L9.48295 21.6982L9.26009 20.4407L9.94074 20.45C9.94074 20.45 8.95723 17.3834 9.65881 16.1495C9.65881 16.1495 10.1925 17.2656 11.7528 17.3625L11.7507 16.6125C11.7507 16.6125 13.3506 16.8049 13.5573 16.9581C13.764 17.1113 15.2066 17.3548 15.2066 17.3548L15.2053 16.9179L15.2072 16.9179L15.8728 16.8954L15.8707 16.1436C15.8707 16.1436 16.8185 19.8553 18.2597 20.2882L18.8442 20.0991L19.4077 20.4519C19.4077 20.4519 19.3497 21.8508 20.4552 22.2846C20.4552 22.2846 19.1631 22.1813 19.1662 23.2894L22.1493 23.2812C22.1493 23.2812 21.9328 20.9661 22.1412 20.3618C22.3495 19.7575 22.4495 19.3166 22.3664 19.1087C22.2834 18.9008 19.5398 15.3609 19.4747 14.2135C19.4747 14.2135 20.0715 17.0919 22.6983 17.0846L21.7114 16.148L22.3581 16.0843C22.3581 16.0843 20.8952 15.2952 20.8309 14.3992C20.7665 13.5031 19.796 9.72764 16.6873 9.73626C13.5786 9.74489 12.4382 9.6318 11.4962 9.34566C10.5541 9.05952 8.67087 8.10662 8.67087 8.10662L4.07708 7.42561C4.07708 7.42561 1.96428 13.6246 5.88918 16.5125C6.00191 16.5966 6.12026 16.6787 6.24423 16.7571L6.24611 16.7571C6.24631 16.764 6.24696 16.7709 6.24804 16.7778C6.28078 17.0908 6.64939 20.8679 5.64297 21.7088L6.14462 22.0787C6.14462 22.0787 5.09204 22.4997 4.96082 23.1882Z" fill="#FDCE6D"/>
<path d="M3.19262 4.7091C3.03719 5.14955 2.84813 5.5774 2.62711 5.98886C2.2939 6.58979 1.66781 7.32409 1.79526 7.98337C1.92272 8.64264 2.17383 8.59319 2.1472 9.06427C2.12057 9.53534 1.73851 9.35472 1.7843 9.91297C1.8301 10.4712 2.6274 11.0968 2.6274 11.0968L2.61094 10.2315C2.61094 10.2315 3.50484 11.2758 3.01292 12.1843C3.01292 12.1843 4.40359 12.4456 4.45471 10.7986C4.45235 9.94738 3.86599 9.86519 3.85053 9.29317C3.83507 8.72115 3.93299 8.53412 3.93299 8.53412C4.51517 5.82781 4.4571 4.2269 3.19262 4.7091ZM7.71998 4.69654C7.87786 5.13612 8.06929 5.56291 8.29259 5.97314C8.62912 6.57221 9.25909 7.30303 9.1353 7.963C9.0115 8.62297 8.76031 8.57492 8.78955 9.04584C8.8188 9.51676 9.19985 9.33401 9.15715 9.89251C9.11445 10.451 8.32063 11.081 8.32063 11.081L8.33173 10.2162C8.33173 10.2162 7.44383 11.2655 7.94059 12.1712C7.94059 12.1712 6.55158 12.4402 6.49114 10.7935C6.48878 9.94229 7.07486 9.85685 7.08696 9.28475C7.09906 8.71265 7.00029 8.52618 7.00029 8.52618C6.37556 6.57472 6.39592 5.12715 7.71998 4.69654Z" fill="#FDCE6D"/>
<path d="M3.15927 4.38829C3.16904 4.14379 3.23239 3.90442 3.34482 3.68709C3.53631 3.29549 3.83433 2.96582 4.20468 2.73592C4.57503 2.50602 5.0027 2.3852 5.4386 2.38733C5.44645 2.38815 5.45409 2.39042 5.46112 2.39402L5.4611 2.38727C5.89702 2.38263 6.32542 2.50101 6.69711 2.72882C7.0688 2.95664 7.36872 3.28465 7.56243 3.6752C7.67607 3.8919 7.74074 4.13092 7.75187 4.37536C7.7543 5.25173 6.98769 6.02299 6.98769 6.02299C6.98769 6.02299 7.32852 6.81611 7.33008 7.37842C7.29414 7.93198 7.09403 8.46227 6.7553 8.90158C6.53287 9.15045 6.01133 8.97865 6.01133 8.97865C5.94548 9.10277 5.47968 9.15375 5.47968 9.15375L5.4796 9.123C5.46541 9.14366 5.45718 9.15381 5.45718 9.15381C5.45718 9.15381 4.99111 9.10541 4.92458 8.98166C4.92458 8.98166 4.404 9.15673 4.18 8.90873C3.83891 8.47128 3.63592 7.94211 3.59697 7.38877C3.59541 6.82628 3.9322 6.03165 3.9322 6.03165C3.9322 6.03165 3.1617 5.26466 3.15927 4.38829Z" fill="#FDCE6D"/>
<path d="M6.33206 4.21539C6.19256 4.21577 6.11215 4.83194 6.30121 4.9216C6.49027 5.01126 6.71945 4.69056 6.69375 4.48532C6.68013 4.40226 6.63483 4.32772 6.56737 4.27738C6.49992 4.22703 6.41557 4.20481 6.33206 4.21539Z" fill="#FDCE6D"/>
<path d="M6.66309 4.03773C6.67057 4.03779 6.67795 4.03611 6.68468 4.03284C6.6914 4.02957 6.69728 4.02479 6.70185 4.01888C6.70836 4.00986 6.71146 3.99882 6.71058 3.98773L6.71057 3.98641C6.72256 3.91457 6.51183 3.6504 6.37837 3.53171C6.36908 3.52343 6.35687 3.51918 6.34444 3.5199C6.33201 3.52062 6.32038 3.52625 6.3121 3.53555C6.30382 3.54485 6.29958 3.55705 6.3003 3.56948C6.30102 3.58191 6.30665 3.59354 6.31594 3.60182C6.43418 3.70962 6.53508 3.835 6.6151 3.97355C6.61483 3.9763 6.61484 3.97906 6.61512 3.9818C6.61413 3.99177 6.61601 4.00182 6.62056 4.01075C6.6251 4.01968 6.63212 4.02711 6.64076 4.03217C6.64764 4.03582 6.65531 4.03773 6.66309 4.03773ZM6.06732 5.02339C6.07694 5.02332 6.0863 5.0203 6.09414 5.01473C6.10197 5.00916 6.10791 5.00132 6.11114 4.99226C6.11437 4.98321 6.11473 4.97338 6.11219 4.96411C6.10964 4.95483 6.10431 4.94657 6.09691 4.94043C6.00843 4.8675 5.93894 4.77421 5.8944 4.66856C5.89214 4.6627 5.88872 4.65736 5.88436 4.65286C5.87999 4.64835 5.87477 4.64476 5.86899 4.64231C5.86321 4.63986 5.857 4.63859 5.85073 4.63859C5.84445 4.63858 5.83824 4.63983 5.83246 4.64227C5.82668 4.64471 5.82144 4.64829 5.81707 4.65279C5.81269 4.65729 5.80927 4.66262 5.80699 4.66847C5.80472 4.67432 5.80364 4.68056 5.80382 4.68683C5.80401 4.69311 5.80545 4.69928 5.80806 4.70498C5.85837 4.82466 5.93712 4.93025 6.03748 5.0126C6.04578 5.01972 6.05639 5.02355 6.06732 5.02339ZM7.11861 6.22835C7.1251 6.22827 7.13149 6.22678 7.13735 6.22399C7.14294 6.22143 7.14797 6.21778 7.15215 6.21327C7.15632 6.20875 7.15956 6.20345 7.16167 6.19767C7.16378 6.19189 7.16473 6.18575 7.16445 6.1796C7.16417 6.17346 7.16267 6.16743 7.16005 6.16186C7.13364 6.10456 7.10349 6.04952 7.07464 5.99335C6.97635 5.85381 6.92487 5.68667 6.92763 5.51601C6.92979 5.5038 6.92705 5.49123 6.92 5.48104C6.91295 5.47084 6.90216 5.46384 6.88998 5.46155C6.88392 5.46029 6.87767 5.46028 6.8716 5.46151C6.86554 5.46275 6.85978 5.4652 6.85469 5.46872C6.8496 5.47224 6.84528 5.47675 6.84198 5.48199C6.83869 5.48723 6.83649 5.49309 6.83552 5.4992C6.82679 5.69078 6.88178 5.87986 6.99189 6.03689C7.02054 6.091 7.04938 6.14586 7.07541 6.20147C7.07922 6.20967 7.08533 6.21657 7.09301 6.22135C7.10068 6.22612 7.10957 6.22855 7.11861 6.22835Z" fill="#FDCE6D"/>
<path d="M4.93139 5.87559C5.08272 5.67661 5.48662 5.82117 5.48662 5.82117C5.48662 5.82117 5.83534 5.67452 5.98776 5.87266C6.14019 6.0708 6.33975 6.63144 6.16813 6.67841C5.99651 6.72539 5.92358 6.72972 5.9034 6.55146C5.89021 6.44206 5.85638 6.33615 5.80372 6.23936C5.80372 6.23936 5.74873 6.69308 5.84855 6.78524C5.94837 6.8774 5.95095 6.92989 5.95095 6.92989C5.64604 7.59449 5.31974 7.57533 4.97389 6.9326C4.97389 6.9326 4.97693 6.88009 5.07567 6.78738C5.17442 6.69467 5.11728 6.24126 5.11728 6.24126C5.06527 6.33838 5.0321 6.44446 5.01953 6.55391C5.00015 6.73228 4.9272 6.72817 4.75551 6.68233C4.58382 6.6365 4.78007 6.07476 4.93139 5.87559Z" fill="#FDCE6D"/>
<path d="M6.02491 9.07295C6.03541 9.07292 6.0456 9.06936 6.05384 9.06285C6.06208 9.05634 6.0679 9.04725 6.07036 9.03704C6.07282 9.02683 6.07177 9.01609 6.0674 9.00654C6.06302 8.99699 6.05556 8.98919 6.04622 8.98439C5.92136 8.92005 5.85772 8.62247 5.82446 8.46263L5.81705 8.42815C5.72892 8.01851 5.47634 8.01434 5.46547 8.01437C5.45304 8.0144 5.44113 8.01938 5.43236 8.02819C5.42359 8.03701 5.41869 8.04894 5.41872 8.06137C5.41876 8.07381 5.42373 8.08572 5.43254 8.09448C5.44136 8.10325 5.4533 8.10815 5.46573 8.10812C5.47473 8.10809 5.65494 8.11791 5.72617 8.4479L5.73339 8.482C5.77576 8.68157 5.83941 8.98309 6.0037 9.06757C6.01024 9.07103 6.01751 9.07288 6.02491 9.07295Z" fill="#FDCE6D"/>
<path d="M4.57785 4.22062C4.71735 4.22023 4.80119 4.83594 4.61262 4.92665C4.42406 5.01736 4.19311 4.69793 4.21767 4.49255C4.23087 4.40944 4.27577 4.33468 4.34293 4.28397C4.4101 4.23326 4.4943 4.21055 4.57785 4.22062Z" fill="#FDCE6D"/>
<path d="M4.24585 4.04442C4.25375 4.04449 4.26154 4.0426 4.26853 4.03892C4.27721 4.03379 4.28421 4.02625 4.28868 4.01722C4.29315 4.00818 4.29489 3.99804 4.2937 3.98803C4.29397 3.98535 4.29396 3.98265 4.29367 3.97997C4.3731 3.84115 4.47329 3.7153 4.59076 3.60677C4.59535 3.60265 4.59907 3.59766 4.60172 3.5921C4.60438 3.58653 4.60591 3.5805 4.60623 3.57434C4.60655 3.56819 4.60566 3.56203 4.6036 3.55622C4.60154 3.55041 4.59836 3.54506 4.59424 3.54048C4.59011 3.5359 4.58513 3.53218 4.57956 3.52952C4.574 3.52687 4.56797 3.52534 4.56181 3.52501C4.55565 3.52469 4.5495 3.52559 4.54369 3.52764C4.53788 3.5297 4.53253 3.53288 4.52795 3.53701C4.38396 3.66009 4.27096 3.81533 4.19808 3.99017C4.19717 3.99648 4.19756 4.00291 4.19922 4.00906C4.20088 4.01522 4.20378 4.02097 4.20774 4.02596C4.21227 4.03174 4.21805 4.0364 4.22466 4.0396C4.23127 4.0428 4.23851 4.04445 4.24585 4.04442ZM4.84614 5.02676C4.85707 5.02684 4.86766 5.02295 4.87593 5.0158C4.97577 4.93284 5.05392 4.82683 5.10363 4.70691C5.10621 4.7012 5.10762 4.69502 5.10777 4.68874C5.10792 4.68247 5.10681 4.67623 5.1045 4.67039C5.10219 4.66456 5.09874 4.65924 5.09434 4.65477C5.08994 4.65029 5.08469 4.64675 5.07889 4.64434C5.0731 4.64193 5.06688 4.64071 5.0606 4.64075C5.05432 4.6408 5.04812 4.6421 5.04236 4.64458C5.0366 4.64706 5.03139 4.65068 5.02705 4.65521C5.02271 4.65974 5.01932 4.6651 5.01709 4.67097C4.97314 4.77687 4.90417 4.87054 4.8161 4.94396C4.80873 4.95014 4.80345 4.95843 4.80095 4.96772C4.79846 4.977 4.79888 4.98683 4.80216 4.99587C4.80544 5.00491 4.81142 5.01272 4.81928 5.01824C4.82715 5.02377 4.83653 5.02674 4.84614 5.02676ZM3.83937 6.21455C3.84762 6.21455 3.85571 6.21237 3.86284 6.20823C3.86998 6.2041 3.87589 6.19815 3.87999 6.191C4.0215 5.99174 4.09201 5.75074 4.08022 5.50663C4.07922 5.50052 4.07699 5.49468 4.07367 5.48946C4.07034 5.48424 4.06599 5.47975 4.06088 5.47626C4.05577 5.47277 4.05001 5.47035 4.04393 5.46915C4.03786 5.46795 4.03161 5.468 4.02556 5.46928C4.01338 5.47164 4.00264 5.4787 3.99564 5.48894C3.98865 5.49918 3.98598 5.51176 3.98821 5.52395C3.99471 5.74596 3.92819 5.96397 3.79886 6.14454C3.79269 6.15533 3.79104 6.16813 3.79427 6.18013C3.7975 6.19214 3.80535 6.20238 3.81611 6.20862C3.82319 6.21263 3.83123 6.21468 3.83937 6.21455Z" fill="#FDCE6D"/>
<path d="M4.91195 9.07644C4.91948 9.07645 4.92689 9.07456 4.93349 9.07095C5.09732 8.98556 5.15948 8.68369 5.20074 8.48389L5.20777 8.44975C5.27735 8.11805 5.45864 8.10874 5.46632 8.10853C5.47876 8.10849 5.49067 8.10352 5.49943 8.09471C5.5082 8.08589 5.5131 8.07396 5.51307 8.06152C5.51304 8.04909 5.50806 8.03718 5.49925 8.02842C5.49043 8.01965 5.4785 8.01474 5.46606 8.01478C5.45519 8.01481 5.20264 8.02038 5.11678 8.4305L5.10956 8.46502C5.07663 8.62505 5.01521 8.92297 4.8907 8.988C4.88139 8.99286 4.87397 9.0007 4.86965 9.01027C4.86533 9.01985 4.86434 9.03059 4.86686 9.04079C4.86937 9.05099 4.87524 9.06005 4.88352 9.06651C4.8918 9.07298 4.902 9.07647 4.91251 9.07644L4.91195 9.07644Z" fill="#FDCE6D"/>
<path d="M5.0524 12.9503C5.05829 13.0459 5.16912 15.1456 5.88916 16.5123C6.00189 16.5964 6.12025 16.6786 6.24422 16.757C6.24262 16.7454 6.23807 16.7344 6.231 16.7251C5.37243 15.4394 5.24181 12.9647 5.23987 12.9404C5.2396 12.9281 5.23681 12.9159 5.23167 12.9047C5.22653 12.8936 5.21915 12.8835 5.21 12.8753C5.20084 12.8671 5.19009 12.8608 5.17842 12.8569C5.16675 12.853 5.1544 12.8515 5.14213 12.8525C5.12982 12.853 5.11772 12.856 5.10655 12.8612C5.09537 12.8664 5.08533 12.8737 5.077 12.8828C5.06866 12.8919 5.0622 12.9025 5.05798 12.9141C5.05376 12.9256 5.05186 12.9379 5.0524 12.9503ZM9.68939 16.1626C9.7072 16.1626 9.72463 16.1575 9.73965 16.1479C9.75466 16.1383 9.76664 16.1247 9.77418 16.1085L10.3136 14.955C10.3202 14.9438 10.3244 14.9313 10.3259 14.9184C10.3274 14.9054 10.3262 14.8923 10.3224 14.8798C10.3185 14.8674 10.3121 14.8558 10.3036 14.846C10.295 14.8362 10.2845 14.8282 10.2727 14.8227C10.2609 14.8171 10.248 14.8141 10.235 14.8138C10.222 14.8135 10.209 14.8159 10.197 14.8209C10.1849 14.8259 10.174 14.8333 10.165 14.8427C10.156 14.8522 10.1491 14.8634 10.1446 14.8756L9.60408 16.0291C9.59358 16.0517 9.59246 16.0775 9.60097 16.1008C9.60947 16.1242 9.6269 16.1432 9.64943 16.1537C9.6619 16.1597 9.67557 16.1627 9.68939 16.1626ZM15.8484 16.2372C15.8529 16.2375 15.8573 16.2374 15.8617 16.2372C15.8864 16.2336 15.9085 16.2204 15.9234 16.2005C15.9383 16.1806 15.9447 16.1556 15.9411 16.131C15.6701 14.2639 14.8771 13.8406 14.8435 13.8235C14.8215 13.8133 14.7965 13.8121 14.7736 13.82C14.7507 13.8279 14.7318 13.8443 14.7208 13.8659C14.7097 13.8874 14.7075 13.9124 14.7144 13.9355C14.7214 13.9587 14.737 13.9783 14.7581 13.9902C14.7705 13.9971 15.5014 14.4059 15.7556 16.158C15.7591 16.1801 15.7703 16.2002 15.7873 16.2148C15.8044 16.2293 15.826 16.2372 15.8484 16.2372ZM19.4517 14.3079C19.4762 14.3079 19.4996 14.2983 19.5171 14.2812C19.5346 14.2641 19.5447 14.2408 19.5452 14.2164C19.5689 13.2126 18.9334 12.0472 18.9062 11.9979C18.894 11.9767 18.8738 11.9612 18.8502 11.9546C18.8266 11.9481 18.8014 11.951 18.7799 11.9628C18.7584 11.9747 18.7424 11.9944 18.7354 12.0179C18.7283 12.0414 18.7307 12.0667 18.7421 12.0884C18.7483 12.1 19.3802 13.2594 19.3577 14.212C19.3574 14.2243 19.3596 14.2366 19.364 14.2481C19.3684 14.2595 19.3751 14.27 19.3836 14.279C19.3921 14.2879 19.4023 14.295 19.4136 14.3C19.4248 14.305 19.437 14.3077 19.4493 14.3079L19.4517 14.3079ZM8.16243 21.585C8.17373 21.585 8.18464 21.5809 8.19315 21.5735C8.49193 21.3056 8.72018 20.9683 8.85775 20.5913C8.99532 20.2143 9.03798 19.8093 8.98197 19.4119C8.98116 19.4058 8.97911 19.3998 8.97596 19.3945C8.97281 19.3892 8.96862 19.3846 8.96364 19.3809C8.95866 19.3772 8.95298 19.3746 8.94696 19.3732C8.94095 19.3718 8.9347 19.3716 8.92861 19.3727C8.92251 19.3736 8.91666 19.3757 8.91139 19.3789C8.90612 19.3821 8.90153 19.3863 8.89789 19.3913C8.89424 19.3963 8.89161 19.4019 8.89016 19.4079C8.8887 19.4139 8.88843 19.4201 8.88938 19.4262C8.94312 19.808 8.9021 20.1971 8.76992 20.5593C8.63774 20.9215 8.41847 21.2456 8.13145 21.503C8.12679 21.507 8.12296 21.512 8.1202 21.5175C8.11745 21.523 8.11581 21.529 8.11539 21.5352C8.11498 21.5413 8.11578 21.5475 8.11777 21.5533C8.11975 21.5592 8.12287 21.5646 8.12695 21.5692C8.13141 21.5742 8.13688 21.5782 8.14299 21.5809C8.14911 21.5836 8.15573 21.5851 8.16243 21.585ZM7.54556 21.994C7.55768 21.994 7.56931 21.9893 7.57797 21.9808C7.83905 21.723 8.04603 21.4156 8.18676 21.0767C8.32749 20.7378 8.39913 20.3743 8.39749 20.0073C8.39736 19.9949 8.39235 19.9831 8.38355 19.9744C8.37475 19.9657 8.36287 19.9608 8.35049 19.9608C8.34433 19.9608 8.33825 19.9621 8.33259 19.9645C8.32693 19.9669 8.3218 19.9704 8.31749 19.9748C8.31318 19.9792 8.30979 19.9844 8.30749 19.9902C8.3052 19.9959 8.30405 20.002 8.30412 20.0081C8.30567 20.3624 8.23651 20.7134 8.10068 21.0406C7.96485 21.3678 7.76509 21.6646 7.51309 21.9137C7.50644 21.9202 7.50188 21.9285 7.5 21.9376C7.49812 21.9468 7.49899 21.9562 7.50252 21.9649C7.50604 21.9735 7.51205 21.9809 7.51979 21.986C7.52752 21.9912 7.53663 21.994 7.54594 21.994L7.54556 21.994ZM6.41667 22.0093C6.42524 22.0092 6.43365 22.0069 6.44102 22.0025C6.64543 21.8743 6.81133 21.6931 6.92116 21.4782C7.03098 21.2634 7.08062 21.0228 7.06482 20.782C7.06487 20.7757 7.06352 20.7694 7.06089 20.7637C7.05825 20.7579 7.05439 20.7528 7.04957 20.7487C7.04475 20.7446 7.03909 20.7416 7.03299 20.74C7.02689 20.7383 7.0205 20.738 7.01427 20.739C7.00189 20.7401 6.99043 20.746 6.98241 20.7555C6.97439 20.7649 6.97045 20.7772 6.97147 20.7896C6.9862 21.0132 6.94011 21.2367 6.8381 21.4362C6.73608 21.6357 6.58195 21.8039 6.39205 21.923C6.38329 21.9283 6.37651 21.9363 6.37277 21.9459C6.36902 21.9554 6.3685 21.9659 6.37129 21.9758C6.37409 21.9856 6.38004 21.9943 6.38823 22.0005C6.39643 22.0066 6.40642 22.0099 6.41667 22.0099L6.41667 22.0093ZM6.09851 21.8201C6.10757 21.8202 6.11645 21.8175 6.12399 21.8125C6.38146 21.6443 6.58968 21.4108 6.72737 21.1358C6.94554 20.7004 6.96981 20.1928 6.99145 19.7452C6.99198 19.7327 6.98757 19.7206 6.97919 19.7114C6.9708 19.7021 6.95912 19.6966 6.94669 19.696C6.93441 19.6959 6.92254 19.7004 6.91345 19.7087C6.90437 19.7169 6.89874 19.7283 6.89769 19.7405C6.87678 20.1792 6.85284 20.6761 6.64344 21.0939C6.51327 21.3541 6.31634 21.575 6.07277 21.7341C6.06429 21.7396 6.05781 21.7477 6.05432 21.7572C6.05083 21.7667 6.05051 21.7771 6.0534 21.7868C6.0563 21.7965 6.06226 21.805 6.07039 21.811C6.07852 21.8171 6.08839 21.8203 6.09851 21.8203L6.09851 21.8201Z" fill="#FDCE6D"/>
<path d="M5.79877 21.7735C5.8052 21.7736 5.81157 21.7723 5.81746 21.7697C5.82336 21.7671 5.82867 21.7634 5.83304 21.7586C6.29015 21.2619 6.54636 20.613 6.55192 19.9379C6.55211 19.9317 6.55103 19.9255 6.54873 19.9197C6.54644 19.9139 6.54299 19.9086 6.53858 19.9042C6.53418 19.8998 6.52893 19.8963 6.52314 19.894C6.51735 19.8917 6.51115 19.8906 6.50492 19.8908C6.49255 19.8908 6.4807 19.8957 6.47194 19.9045C6.46319 19.9132 6.45824 19.925 6.45817 19.9374C6.45304 20.5892 6.20578 21.2159 5.76442 21.6956C5.75811 21.7023 5.75388 21.7107 5.75229 21.7197C5.7507 21.7287 5.7518 21.738 5.75547 21.7464C5.75913 21.7549 5.76519 21.762 5.77289 21.767C5.78059 21.772 5.78959 21.7746 5.79877 21.7745L5.79877 21.7735Z" fill="#FDCE6D"/>
<path d="M3.95659 21.4423C3.96821 21.4423 3.97942 21.438 3.98806 21.4302C4.66117 20.8117 5.06475 19.9538 5.11206 19.0409C5.11235 19.0348 5.11142 19.0286 5.10933 19.0228C5.10725 19.017 5.10404 19.0117 5.09989 19.0072C5.09574 19.0026 5.09074 18.9989 5.08516 18.9963C5.07958 18.9936 5.07354 18.9921 5.06739 18.9919C5.06123 18.9916 5.05508 18.9925 5.04928 18.9946C5.04348 18.9967 5.03815 18.9999 5.03359 19.004C5.02903 19.0082 5.02533 19.0132 5.02271 19.0187C5.02008 19.0243 5.01858 19.0304 5.01829 19.0365C4.97242 19.9246 4.57979 20.7592 3.92486 21.3608C3.91788 21.3672 3.91299 21.3755 3.91084 21.3848C3.90869 21.394 3.90937 21.4036 3.91281 21.4124C3.91624 21.4212 3.92226 21.4288 3.93007 21.4341C3.93789 21.4395 3.94713 21.4423 3.95659 21.4423ZM2.92986 21.7234L3.12299 21.7229C3.63387 21.3887 4.0334 20.9097 4.27043 20.3472C4.52096 19.7358 4.7016 19.0982 4.8089 18.4463C4.8111 18.4339 4.80841 18.4211 4.80139 18.4106C4.79437 18.4002 4.78357 18.3928 4.77125 18.3901C4.7591 18.3882 4.74667 18.3911 4.73657 18.3981C4.72646 18.4051 4.71944 18.4157 4.71698 18.4278C4.61092 19.0724 4.43279 19.7031 4.18594 20.308C3.93726 20.907 3.49502 21.4053 2.92986 21.7234ZM4.57754 21.4916C4.58285 21.4915 4.58812 21.4906 4.59309 21.4887C4.81401 21.4063 5.00902 21.2666 5.15814 21.0839C5.30725 20.9013 5.4051 20.6822 5.44165 20.4493C5.44256 20.4432 5.44226 20.437 5.44075 20.431C5.43924 20.4251 5.43656 20.4194 5.43286 20.4145C5.42917 20.4096 5.42453 20.4054 5.41923 20.4023C5.41392 20.3992 5.40804 20.3972 5.40194 20.3963C5.39584 20.3953 5.38958 20.3955 5.38356 20.397C5.37754 20.3984 5.37188 20.4011 5.36692 20.4048C5.36196 20.4085 5.35782 20.4132 5.35473 20.4186C5.35165 20.4239 5.3497 20.4299 5.34899 20.436C5.31504 20.6522 5.22424 20.8554 5.0859 21.0248C4.94757 21.1943 4.76666 21.3239 4.56172 21.4005C4.55127 21.4042 4.54247 21.4114 4.53687 21.421C4.53127 21.4306 4.52923 21.4418 4.53113 21.4527C4.53302 21.4636 4.53873 21.4735 4.54722 21.4806C4.55572 21.4877 4.56646 21.4916 4.57754 21.4916Z" fill="#FDCE6D"/>
<path d="M13.087 16.3814C13.7286 16.7482 14.4456 16.9637 15.1831 17.0112L15.1829 16.9175C14.4616 16.8698 13.7608 16.6582 13.1336 16.2988C13.1229 16.2926 13.1102 16.291 13.0982 16.2941C13.0863 16.2973 13.0761 16.3051 13.0699 16.3158C13.0636 16.3268 13.0619 16.3399 13.0651 16.3521C13.0682 16.3644 13.0761 16.3749 13.087 16.3814ZM11.8197 16.5931C11.8321 16.5932 11.8441 16.5885 11.853 16.5798C11.8619 16.5711 11.867 16.5592 11.8672 16.5468C11.8673 16.5344 11.8626 16.5224 11.8539 16.5135C11.8452 16.5046 11.8334 16.4995 11.8209 16.4993L10.8571 16.4664C10.8448 16.4666 10.8331 16.4714 10.8242 16.4798C10.8153 16.4881 10.8097 16.4995 10.8086 16.5117C10.8084 16.5178 10.8094 16.524 10.8116 16.5297C10.8138 16.5355 10.8171 16.5408 10.8213 16.5453C10.8255 16.5498 10.8305 16.5534 10.8361 16.556C10.8418 16.5585 10.8478 16.5599 10.854 16.5601L11.818 16.5931L11.8197 16.5931ZM18.2075 20.2438C18.2153 20.2438 18.2229 20.2417 18.2298 20.2379C18.2407 20.2319 18.2487 20.2219 18.2522 20.21C18.2557 20.198 18.2543 20.1852 18.2483 20.1743C17.6292 19.0364 17.3134 17.7583 17.3315 16.463C17.3316 16.4569 17.3304 16.4508 17.3281 16.445C17.3259 16.4393 17.3225 16.4341 17.3182 16.4297C17.3139 16.4253 17.3088 16.4218 17.3031 16.4193C17.2975 16.4169 17.2914 16.4156 17.2852 16.4155C17.2791 16.4154 17.2729 16.4166 17.2672 16.4189C17.2615 16.4211 17.2563 16.4245 17.2519 16.4288C17.2475 16.4331 17.244 16.4382 17.2415 16.4439C17.2391 16.4495 17.2378 16.4556 17.2377 16.4618C17.2197 17.7733 17.5397 19.0674 18.1669 20.2193C18.1709 20.2267 18.1767 20.2328 18.1839 20.2371C18.191 20.2414 18.1991 20.2437 18.2075 20.2438Z" fill="#FDCE6D"/>
<path d="M19.0181 20.2168C19.0278 20.2167 19.0372 20.2136 19.0451 20.208C19.053 20.2023 19.0589 20.1944 19.0621 20.1852C19.0652 20.1761 19.0655 20.1661 19.0628 20.1568C19.0601 20.1475 19.0545 20.1393 19.047 20.1333C18.5196 19.7154 18.0972 19.18 17.8138 18.5697C17.8112 18.5642 17.8075 18.5591 17.803 18.5549C17.7984 18.5508 17.7931 18.5475 17.7873 18.5454C17.7816 18.5433 17.7754 18.5423 17.7692 18.5426C17.7631 18.5428 17.757 18.5443 17.7514 18.5469C17.7458 18.5494 17.7408 18.5531 17.7366 18.5576C17.7325 18.5622 17.7292 18.5675 17.7271 18.5733C17.725 18.5791 17.724 18.5852 17.7243 18.5914C17.7245 18.5975 17.726 18.6036 17.7286 18.6092C18.0183 19.2328 18.45 19.7799 18.9892 20.2066C18.9974 20.2131 19.0076 20.2167 19.0181 20.2168ZM20.5576 20.9764C20.5687 20.9763 20.5795 20.9723 20.588 20.965C20.5964 20.9577 20.602 20.9476 20.6037 20.9366C20.6054 20.9256 20.6031 20.9143 20.5972 20.9048C20.5913 20.8953 20.5822 20.8882 20.5716 20.8849C20.1092 20.7336 19.6979 20.457 19.3835 20.0857C19.0691 19.7145 18.8639 19.2633 18.7908 18.7823C18.79 18.7761 18.7879 18.7702 18.7848 18.7649C18.7816 18.7595 18.7774 18.7548 18.7725 18.7511C18.7675 18.7474 18.7618 18.7446 18.7558 18.7431C18.7498 18.7415 18.7435 18.7412 18.7374 18.742C18.7312 18.7429 18.7253 18.745 18.72 18.7481C18.7146 18.7513 18.7099 18.7555 18.7062 18.7604C18.7025 18.7654 18.6997 18.771 18.6982 18.7771C18.6966 18.7831 18.6963 18.7893 18.6971 18.7955C18.7729 19.2939 18.9856 19.7614 19.3114 20.1461C19.6372 20.5308 20.0634 20.8174 20.5426 20.9742C20.5474 20.9757 20.5525 20.9765 20.5576 20.9764ZM20.4658 22.7204C20.4752 22.7204 20.4842 22.7176 20.492 22.7124C20.4997 22.7072 20.5057 22.6998 20.5093 22.6912C20.6801 22.2706 20.7556 21.8173 20.7306 21.364C20.7292 21.352 20.7234 21.3409 20.7143 21.3328C20.7052 21.3247 20.6935 21.3203 20.6813 21.3203C20.6689 21.3211 20.6573 21.3267 20.649 21.336C20.6408 21.3453 20.6365 21.3575 20.6372 21.3699C20.6617 21.8092 20.5886 22.2485 20.4231 22.6562C20.4202 22.6633 20.4191 22.6711 20.4199 22.6787C20.4207 22.6864 20.4233 22.6937 20.4276 22.7001C20.4319 22.7065 20.4377 22.7117 20.4445 22.7153C20.4513 22.7189 20.4589 22.7208 20.4666 22.7208L20.4658 22.7204ZM20.9589 22.6262C20.969 22.6262 20.9789 22.6228 20.987 22.6167C20.9951 22.6106 21.001 22.6021 21.0038 22.5924C21.2364 21.7731 21.1641 20.8973 20.8003 20.1273C20.7945 20.1168 20.7849 20.1089 20.7736 20.1052C20.7622 20.1016 20.7498 20.1024 20.739 20.1076C20.7282 20.1127 20.7198 20.1218 20.7155 20.133C20.7112 20.1442 20.7113 20.1566 20.7158 20.1676C21.0699 20.9172 21.1402 21.7697 20.9137 22.5671C20.9103 22.5791 20.9118 22.5919 20.9178 22.6028C20.9238 22.6137 20.9338 22.6218 20.9458 22.6253C20.9501 22.6263 20.9545 22.6266 20.9589 22.6262Z" fill="#FDCE6D"/>
<path d="M20.3304 20.5236C20.3412 20.5236 20.3518 20.5199 20.3602 20.5131C20.3686 20.5063 20.3744 20.4968 20.3766 20.4861C20.3788 20.4755 20.3772 20.4645 20.3721 20.4549C20.3671 20.4453 20.3589 20.4377 20.3489 20.4335C19.8737 20.2104 19.5013 19.8149 19.3071 19.3272C19.1131 18.8371 18.9816 18.3246 18.9158 17.8016C18.9135 17.7895 18.9065 17.7787 18.8965 17.7716C18.8864 17.7644 18.874 17.7614 18.8617 17.7631C18.8557 17.7642 18.8498 17.7664 18.8446 17.7696C18.8394 17.7729 18.8348 17.7772 18.8313 17.7822C18.8277 17.7872 18.8252 17.7929 18.8238 17.7989C18.8224 17.8049 18.8222 17.8112 18.8233 17.8173C18.8901 18.3481 19.0238 18.8684 19.2213 19.3657C19.4249 19.8751 19.8149 20.2878 20.312 20.5199C20.3178 20.5224 20.3241 20.5237 20.3304 20.5236ZM18.4621 18.8881C18.471 18.8882 18.4797 18.8858 18.4873 18.8812C18.4948 18.8766 18.5009 18.8699 18.5048 18.8619C18.5087 18.8539 18.5103 18.845 18.5093 18.8362C18.5084 18.8274 18.5049 18.819 18.4994 18.8121C18.1967 18.4309 18.018 17.9662 17.9874 17.4804C17.9863 17.4681 17.9805 17.4567 17.9712 17.4485C17.962 17.4404 17.9499 17.436 17.9376 17.4365C17.9252 17.4373 17.9136 17.443 17.9053 17.4523C17.8971 17.4616 17.8929 17.4738 17.8937 17.4863C17.9255 17.9907 18.1107 18.4733 18.4246 18.8695C18.4289 18.8753 18.4346 18.88 18.4411 18.8833C18.4476 18.8865 18.4548 18.8882 18.4621 18.8881Z" fill="#FDCE6D"/>
</svg>
