<svg width="24" height="26" viewBox="0 0 24 26" fill="none" xmlns="http://www.w3.org/2000/svg">
<path d="M4.98898 1.23691C4.43132 1.49039 3.51879 2.14944 3.01183 2.75779C2.45417 3.31545 1.74443 3.82241 1.38956 3.82241C0.477027 3.82241 -0.232718 5.29259 0.0714581 6.56C0.426331 8.03018 1.69373 9.39898 2.65696 9.39898C3.67088 9.39898 5.74942 15.736 6.10429 20.0958L6.40847 23.0869H8.28422C10.0586 23.0869 10.2107 22.9855 10.5148 21.3126C10.7683 19.9438 10.6162 19.3354 9.8051 18.5243C9.24745 17.9666 8.79118 16.8513 8.79118 16.0402C8.79118 14.0123 12.8469 11.224 15.1282 11.6296C16.8012 11.9845 18.4234 13.6068 18.4234 14.9755C18.4234 15.6346 18.9304 15.9388 20.3499 16.0909C21.3638 16.2429 22.6312 16.4964 23.1382 16.6992C23.8986 17.0541 24 16.8006 24 15.0262C24 12.3393 22.8847 9.65246 21.4652 8.89202C20.3499 8.28366 13.4045 8.43575 9.75441 9.1455C7.42239 9.60176 6.15499 8.43575 6.35777 6.15443C6.56055 4.17728 7.52378 4.07589 7.57448 6.00234C7.67587 8.18227 9.14605 8.99341 10.5655 7.57392C11.326 6.76278 11.326 6.25582 10.3121 3.56893C9.55162 1.54109 6.96612 0.425774 4.98898 1.23691Z" fill="#FDCE6D"/>
<path d="M11.4274 14.4185C9.95717 15.6859 9.80508 16.0408 10.2613 16.9533C10.6162 17.5617 11.1739 18.0179 11.5794 18.0179C11.985 18.0179 12.4413 18.7784 12.6441 19.8937C13.3031 23.7466 13.7087 24.8619 14.5198 25.014C15.0775 25.1154 15.5844 24.7098 15.8886 23.8987C16.2942 22.8341 16.6997 22.5806 18.1699 22.5806C19.5894 22.5806 20.0964 22.8341 20.5526 23.848C20.9075 24.6084 21.4652 25.0647 21.9214 25.014C22.9354 24.8112 23.3409 19.336 22.4284 18.2207C21.7187 17.3589 19.8429 17.3082 17.6123 18.1193C15.6351 18.8291 14.3677 18.0686 14.3677 16.1929C14.3677 14.7227 15.1789 14.5706 15.5337 15.9901C15.8379 17.2575 17.4095 17.3589 17.4095 16.0915C17.4095 15.5845 17.0546 14.672 16.5984 14.0636C15.5337 12.5428 13.4552 12.6441 11.4274 14.4185Z" fill="#FDCE6D"/>
</svg>
