<svg width="22" height="21" viewBox="0 0 22 21" fill="none" xmlns="http://www.w3.org/2000/svg">
<path fill-rule="evenodd" clip-rule="evenodd" d="M15.7351 20.997C14.1925 20.9413 9.82043 20.3482 5.24165 15.8549C0.663937 11.3605 0.0607883 7.07012 0.00293753 5.55482C-0.0827673 3.24559 1.71918 1.00261 3.80073 0.126654C4.0514 0.0204119 4.32589 -0.0200379 4.59729 0.00927436C4.86868 0.0385866 5.12765 0.136654 5.34878 0.293853C7.06288 1.51997 8.2456 3.37493 9.26121 4.83345C9.48466 5.15389 9.58021 5.54383 9.52963 5.92896C9.47905 6.3141 9.28589 6.66751 8.98695 6.92185L6.89682 8.44556C6.79584 8.51714 6.72476 8.62226 6.69678 8.74139C6.66881 8.86053 6.68583 8.98558 6.7447 9.09333C7.21822 9.93773 8.06027 11.1954 9.02445 12.1418C9.9897 13.0882 11.331 13.9694 12.2512 14.4868C12.3666 14.5504 12.5024 14.5681 12.6308 14.5365C12.7591 14.5048 12.8702 14.426 12.9412 14.3164L14.3017 12.2838C14.5519 11.9576 14.9209 11.7391 15.3314 11.6741C15.742 11.609 16.1623 11.7024 16.5043 11.9346C18.0117 12.9589 19.7708 14.0998 21.0585 15.7182C21.2316 15.9368 21.3418 16.1971 21.3774 16.4718C21.413 16.7465 21.3728 17.0255 21.261 17.2797C20.3643 19.3334 18.0952 21.0822 15.7351 20.997Z" fill="#2F435A"/>
</svg>
