<svg width="22" height="17" viewBox="0 0 22 17" fill="none" xmlns="http://www.w3.org/2000/svg">
<path d="M19.2541 0H2.13935C0.962706 0 0.0106967 0.939544 0.0106967 2.08788L0 14.6151C0 15.7635 0.962706 16.703 2.13935 16.703H19.2541C20.4308 16.703 21.3935 15.7635 21.3935 14.6151V2.08788C21.3935 0.939544 20.4308 0 19.2541 0ZM18.8263 4.43673L11.2637 9.05094C10.9214 9.25973 10.4721 9.25973 10.1298 9.05094L2.56722 4.43673C2.45996 4.37797 2.36603 4.29858 2.29112 4.20337C2.21621 4.10815 2.16188 3.99909 2.13141 3.88279C2.10093 3.76649 2.09496 3.64536 2.11384 3.52674C2.13273 3.40812 2.17608 3.29447 2.24127 3.19268C2.30646 3.09088 2.39214 3.00305 2.49312 2.9345C2.5941 2.86596 2.70828 2.81812 2.82875 2.79389C2.94922 2.76966 3.07348 2.76953 3.194 2.79352C3.31452 2.81751 3.4288 2.86512 3.52992 2.93346L10.6967 7.30756L17.8636 2.93346C17.9647 2.86512 18.079 2.81751 18.1995 2.79352C18.32 2.76953 18.4443 2.76966 18.5647 2.79389C18.6852 2.81812 18.7994 2.86596 18.9004 2.9345C19.0013 3.00305 19.087 3.09088 19.1522 3.19268C19.2174 3.29447 19.2607 3.40812 19.2796 3.52674C19.2985 3.64536 19.2925 3.76649 19.2621 3.88279C19.2316 3.99909 19.1773 4.10815 19.1024 4.20337C19.0274 4.29858 18.9335 4.37797 18.8263 4.43673Z" fill="#2F435A"/>
</svg>
