<svg width="42" height="37" viewBox="0 0 42 37" fill="none" xmlns="http://www.w3.org/2000/svg">
<g filter="url(#filter0_d_562_1030)">
<path d="M25.2541 6H8.13935C6.96271 6 6.0107 6.93954 6.0107 8.08788L6 20.6151C6 21.7635 6.96271 22.703 8.13935 22.703H25.2541C26.4308 22.703 27.3935 21.7635 27.3935 20.6151V8.08788C27.3935 6.93954 26.4308 6 25.2541 6ZM24.8263 10.4367L17.2637 15.0509C16.9214 15.2597 16.4721 15.2597 16.1298 15.0509L8.56722 10.4367C8.45996 10.378 8.36603 10.2986 8.29112 10.2034C8.21621 10.1082 8.16188 9.99909 8.13141 9.88279C8.10093 9.76649 8.09496 9.64536 8.11384 9.52674C8.13273 9.40812 8.17608 9.29447 8.24127 9.19268C8.30646 9.09088 8.39214 9.00305 8.49312 8.9345C8.5941 8.86596 8.70828 8.81812 8.82875 8.79389C8.94922 8.76966 9.07348 8.76953 9.194 8.79352C9.31452 8.81751 9.4288 8.86512 9.52992 8.93346L16.6967 13.3076L23.8636 8.93346C23.9647 8.86512 24.079 8.81751 24.1995 8.79352C24.32 8.76953 24.4443 8.76966 24.5647 8.79389C24.6852 8.81812 24.7994 8.86596 24.9004 8.9345C25.0013 9.00305 25.087 9.09088 25.1522 9.19268C25.2174 9.29447 25.2607 9.40812 25.2796 9.52674C25.2985 9.64536 25.2925 9.76649 25.2621 9.88279C25.2316 9.99909 25.1773 10.1082 25.1024 10.2034C25.0274 10.2986 24.9335 10.378 24.8263 10.4367Z" fill="#2F435A"/>
</g>
<defs>
<filter id="filter0_d_562_1030" x="0" y="0" width="41.3935" height="36.7031" filterUnits="userSpaceOnUse" color-interpolation-filters="sRGB">
<feFlood flood-opacity="0" result="BackgroundImageFix"/>
<feColorMatrix in="SourceAlpha" type="matrix" values="0 0 0 0 0 0 0 0 0 0 0 0 0 0 0 0 0 0 127 0" result="hardAlpha"/>
<feOffset dx="4" dy="4"/>
<feGaussianBlur stdDeviation="5"/>
<feComposite in2="hardAlpha" operator="out"/>
<feColorMatrix type="matrix" values="0 0 0 0 0 0 0 0 0 0 0 0 0 0 0 0 0 0 0.2 0"/>
<feBlend mode="normal" in2="BackgroundImageFix" result="effect1_dropShadow_562_1030"/>
<feBlend mode="normal" in="SourceGraphic" in2="effect1_dropShadow_562_1030" result="shape"/>
</filter>
</defs>
</svg>
