<svg width="44" height="39" viewBox="0 0 44 39" fill="none" xmlns="http://www.w3.org/2000/svg">
<g filter="url(#filter0_d_562_1121)">
<path d="M20.872 16.127H26.308V14.7699H20.872V16.127ZM20.872 12.3677H26.308V11.0106H20.872V12.3677ZM9.692 19.9894H18.5133V19.7641C18.5133 18.9725 18.1222 18.36 17.34 17.9266C16.5578 17.4932 15.4787 17.276 14.1027 17.2751C12.7267 17.2742 11.6471 17.4914 10.864 17.9266C10.0809 18.3618 9.69022 18.9743 9.692 19.7641V19.9894ZM14.1027 15.082C14.6653 15.082 15.1391 14.8861 15.524 14.4944C15.9089 14.1026 16.1018 13.6199 16.1027 13.0463C16.1036 12.4727 15.9107 11.9904 15.524 11.5996C15.1373 11.2087 14.6636 11.0124 14.1027 11.0106C13.5418 11.0088 13.068 11.2051 12.6813 11.5996C12.2947 11.994 12.1018 12.4763 12.1027 13.0463C12.1036 13.6163 12.2964 14.099 12.6813 14.4944C13.0662 14.8897 13.54 15.0856 14.1027 15.082ZM8.15333 25C7.54 25 7.028 24.791 6.61733 24.373C6.20667 23.955 6.00089 23.4334 6 22.8082V8.19179C6 7.5675 6.20578 7.04636 6.61733 6.62836C7.02889 6.21036 7.54089 6.0009 8.15333 6H27.8467C28.46 6 28.972 6.20945 29.3827 6.62836C29.7933 7.04726 29.9991 7.5684 30 8.19179V22.8082C30 23.4325 29.7947 23.9536 29.384 24.3716C28.9733 24.7896 28.4609 24.9991 27.8467 25H8.15333Z" fill="#2F435A"/>
</g>
<defs>
<filter id="filter0_d_562_1121" x="0" y="0" width="44" height="39" filterUnits="userSpaceOnUse" color-interpolation-filters="sRGB">
<feFlood flood-opacity="0" result="BackgroundImageFix"/>
<feColorMatrix in="SourceAlpha" type="matrix" values="0 0 0 0 0 0 0 0 0 0 0 0 0 0 0 0 0 0 127 0" result="hardAlpha"/>
<feOffset dx="4" dy="4"/>
<feGaussianBlur stdDeviation="5"/>
<feComposite in2="hardAlpha" operator="out"/>
<feColorMatrix type="matrix" values="0 0 0 0 0 0 0 0 0 0 0 0 0 0 0 0 0 0 0.2 0"/>
<feBlend mode="normal" in2="BackgroundImageFix" result="effect1_dropShadow_562_1121"/>
<feBlend mode="normal" in="SourceGraphic" in2="effect1_dropShadow_562_1121" result="shape"/>
</filter>
</defs>
</svg>
