<svg width="24" height="22" viewBox="0 0 24 22" fill="none" xmlns="http://www.w3.org/2000/svg">
<path d="M20.0757 1.65854C19.5636 2.73402 19.1539 2.93888 17.1565 2.93888C15.3129 2.93888 14.7495 3.19494 14.0325 4.21921C13.3667 5.24348 12.7522 5.49955 10.3451 5.60198C7.47719 5.75562 7.42598 5.80683 7.27234 7.39445C7.06749 9.44299 8.60389 11.133 10.7549 11.133C12.6498 11.133 12.701 11.5427 10.9085 12.9767C9.47452 14.1034 9.47452 14.1034 10.4476 15.1789C11.5743 16.408 13.3155 16.5617 15.2616 15.5374C16.6956 14.8204 16.7468 14.8716 19.9221 18.4054C21.9706 20.6075 23.3534 21.7854 23.6607 21.4782C23.9167 21.2221 24.0704 17.125 23.9679 12.0037C23.8143 3.29737 23.7631 2.99009 22.5852 1.70975C21.0488 0.070919 20.7927 0.070919 20.0757 1.65854Z" fill="#FDCE6D"/>
<path d="M1.22913 6.06271C0.768208 6.7797 3.32888 9.34037 4.04587 8.87945C4.9165 8.3161 4.71165 7.80397 3.12403 6.62606C2.09976 5.85786 1.4852 5.70421 1.22913 6.06271Z" fill="#FDCE6D"/>
<path d="M0 12.4651C0 13.0797 0.460921 13.1821 2.15097 13.0797C5.17256 12.8748 5.37742 11.6457 2.35582 11.6457C0.563348 11.6457 0 11.8505 0 12.4651Z" fill="#FDCE6D"/>
<path d="M2.20215 16.6132C0.921813 17.4839 0.614532 18.8154 1.69002 18.8154C2.56065 18.8154 4.71161 16.562 4.25069 16.1011C3.78977 15.589 3.48249 15.6914 2.20215 16.6132Z" fill="#FDCE6D"/>
</svg>
